<?xml version="1.0" encoding="utf-8" standalone="no"?>
<!DOCTYPE svg PUBLIC "-//W3C//DTD SVG 1.1//EN"
  "http://www.w3.org/Graphics/SVG/1.1/DTD/svg11.dtd">
<!-- Created with matplotlib (http://matplotlib.org/) -->
<svg height="345pt" version="1.1" viewBox="0 0 460 345" width="460pt" xmlns="http://www.w3.org/2000/svg" xmlns:xlink="http://www.w3.org/1999/xlink">
 <defs>
  <style type="text/css">
*{stroke-linecap:butt;stroke-linejoin:round;}
  </style>
 </defs>
 <g id="figure_1">
  <g id="patch_1">
   <path d="M 0 345.6 
L 460.8 345.6 
L 460.8 0 
L 0 0 
z
" style="fill:#ffffff;"/>
  </g>
  <g id="axes_1">
   <g id="patch_2">
    <path d="M 57.6 307.584 
L 414.72 307.584 
L 414.72 41.472 
L 57.6 41.472 
z
" style="fill:#ffffff;"/>
   </g>
   <g id="matplotlib.axis_1">
    <g id="xtick_1">
     <g id="line2d_1">
      <defs>
       <path d="M 0 0 
L 0 3.5 
" id="md946b16eab" style="stroke:#000000;stroke-width:0.8;"/>
      </defs>
      <g>
       <use style="stroke:#000000;stroke-width:0.8;" x="73.832727" xlink:href="#md946b16eab" y="307.584"/>
      </g>
     </g>
     <g id="text_1">
      <!-- 0 -->
      <defs>
       <path d="M 31.78125 66.40625 
Q 24.171875 66.40625 20.328125 58.90625 
Q 16.5 51.421875 16.5 36.375 
Q 16.5 21.390625 20.328125 13.890625 
Q 24.171875 6.390625 31.78125 6.390625 
Q 39.453125 6.390625 43.28125 13.890625 
Q 47.125 21.390625 47.125 36.375 
Q 47.125 51.421875 43.28125 58.90625 
Q 39.453125 66.40625 31.78125 66.40625 
z
M 31.78125 74.21875 
Q 44.046875 74.21875 50.515625 64.515625 
Q 56.984375 54.828125 56.984375 36.375 
Q 56.984375 17.96875 50.515625 8.265625 
Q 44.046875 -1.421875 31.78125 -1.421875 
Q 19.53125 -1.421875 13.0625 8.265625 
Q 6.59375 17.96875 6.59375 36.375 
Q 6.59375 54.828125 13.0625 64.515625 
Q 19.53125 74.21875 31.78125 74.21875 
z
" id="DejaVuSans-30"/>
      </defs>
      <g transform="translate(70.651477 322.182437)scale(0.1 -0.1)">
       <use xlink:href="#DejaVuSans-30"/>
      </g>
     </g>
    </g>
    <g id="xtick_2">
     <g id="line2d_2">
      <g>
       <use style="stroke:#000000;stroke-width:0.8;" x="138.828632" xlink:href="#md946b16eab" y="307.584"/>
      </g>
     </g>
     <g id="text_2">
      <!-- 200 -->
      <defs>
       <path d="M 19.1875 8.296875 
L 53.609375 8.296875 
L 53.609375 0 
L 7.328125 0 
L 7.328125 8.296875 
Q 12.9375 14.109375 22.625 23.890625 
Q 32.328125 33.6875 34.8125 36.53125 
Q 39.546875 41.84375 41.421875 45.53125 
Q 43.3125 49.21875 43.3125 52.78125 
Q 43.3125 58.59375 39.234375 62.25 
Q 35.15625 65.921875 28.609375 65.921875 
Q 23.96875 65.921875 18.8125 64.3125 
Q 13.671875 62.703125 7.8125 59.421875 
L 7.8125 69.390625 
Q 13.765625 71.78125 18.9375 73 
Q 24.125 74.21875 28.421875 74.21875 
Q 39.75 74.21875 46.484375 68.546875 
Q 53.21875 62.890625 53.21875 53.421875 
Q 53.21875 48.921875 51.53125 44.890625 
Q 49.859375 40.875 45.40625 35.40625 
Q 44.1875 33.984375 37.640625 27.21875 
Q 31.109375 20.453125 19.1875 8.296875 
z
" id="DejaVuSans-32"/>
      </defs>
      <g transform="translate(129.284882 322.182437)scale(0.1 -0.1)">
       <use xlink:href="#DejaVuSans-32"/>
       <use x="63.623047" xlink:href="#DejaVuSans-30"/>
       <use x="127.246094" xlink:href="#DejaVuSans-30"/>
      </g>
     </g>
    </g>
    <g id="xtick_3">
     <g id="line2d_3">
      <g>
       <use style="stroke:#000000;stroke-width:0.8;" x="203.824537" xlink:href="#md946b16eab" y="307.584"/>
      </g>
     </g>
     <g id="text_3">
      <!-- 400 -->
      <defs>
       <path d="M 37.796875 64.3125 
L 12.890625 25.390625 
L 37.796875 25.390625 
z
M 35.203125 72.90625 
L 47.609375 72.90625 
L 47.609375 25.390625 
L 58.015625 25.390625 
L 58.015625 17.1875 
L 47.609375 17.1875 
L 47.609375 0 
L 37.796875 0 
L 37.796875 17.1875 
L 4.890625 17.1875 
L 4.890625 26.703125 
z
" id="DejaVuSans-34"/>
      </defs>
      <g transform="translate(194.280787 322.182437)scale(0.1 -0.1)">
       <use xlink:href="#DejaVuSans-34"/>
       <use x="63.623047" xlink:href="#DejaVuSans-30"/>
       <use x="127.246094" xlink:href="#DejaVuSans-30"/>
      </g>
     </g>
    </g>
    <g id="xtick_4">
     <g id="line2d_4">
      <g>
       <use style="stroke:#000000;stroke-width:0.8;" x="268.820442" xlink:href="#md946b16eab" y="307.584"/>
      </g>
     </g>
     <g id="text_4">
      <!-- 600 -->
      <defs>
       <path d="M 33.015625 40.375 
Q 26.375 40.375 22.484375 35.828125 
Q 18.609375 31.296875 18.609375 23.390625 
Q 18.609375 15.53125 22.484375 10.953125 
Q 26.375 6.390625 33.015625 6.390625 
Q 39.65625 6.390625 43.53125 10.953125 
Q 47.40625 15.53125 47.40625 23.390625 
Q 47.40625 31.296875 43.53125 35.828125 
Q 39.65625 40.375 33.015625 40.375 
z
M 52.59375 71.296875 
L 52.59375 62.3125 
Q 48.875 64.0625 45.09375 64.984375 
Q 41.3125 65.921875 37.59375 65.921875 
Q 27.828125 65.921875 22.671875 59.328125 
Q 17.53125 52.734375 16.796875 39.40625 
Q 19.671875 43.65625 24.015625 45.921875 
Q 28.375 48.1875 33.59375 48.1875 
Q 44.578125 48.1875 50.953125 41.515625 
Q 57.328125 34.859375 57.328125 23.390625 
Q 57.328125 12.15625 50.6875 5.359375 
Q 44.046875 -1.421875 33.015625 -1.421875 
Q 20.359375 -1.421875 13.671875 8.265625 
Q 6.984375 17.96875 6.984375 36.375 
Q 6.984375 53.65625 15.1875 63.9375 
Q 23.390625 74.21875 37.203125 74.21875 
Q 40.921875 74.21875 44.703125 73.484375 
Q 48.484375 72.75 52.59375 71.296875 
z
" id="DejaVuSans-36"/>
      </defs>
      <g transform="translate(259.276692 322.182437)scale(0.1 -0.1)">
       <use xlink:href="#DejaVuSans-36"/>
       <use x="63.623047" xlink:href="#DejaVuSans-30"/>
       <use x="127.246094" xlink:href="#DejaVuSans-30"/>
      </g>
     </g>
    </g>
    <g id="xtick_5">
     <g id="line2d_5">
      <g>
       <use style="stroke:#000000;stroke-width:0.8;" x="333.816347" xlink:href="#md946b16eab" y="307.584"/>
      </g>
     </g>
     <g id="text_5">
      <!-- 800 -->
      <defs>
       <path d="M 31.78125 34.625 
Q 24.75 34.625 20.71875 30.859375 
Q 16.703125 27.09375 16.703125 20.515625 
Q 16.703125 13.921875 20.71875 10.15625 
Q 24.75 6.390625 31.78125 6.390625 
Q 38.8125 6.390625 42.859375 10.171875 
Q 46.921875 13.96875 46.921875 20.515625 
Q 46.921875 27.09375 42.890625 30.859375 
Q 38.875 34.625 31.78125 34.625 
z
M 21.921875 38.8125 
Q 15.578125 40.375 12.03125 44.71875 
Q 8.5 49.078125 8.5 55.328125 
Q 8.5 64.0625 14.71875 69.140625 
Q 20.953125 74.21875 31.78125 74.21875 
Q 42.671875 74.21875 48.875 69.140625 
Q 55.078125 64.0625 55.078125 55.328125 
Q 55.078125 49.078125 51.53125 44.71875 
Q 48 40.375 41.703125 38.8125 
Q 48.828125 37.15625 52.796875 32.3125 
Q 56.78125 27.484375 56.78125 20.515625 
Q 56.78125 9.90625 50.3125 4.234375 
Q 43.84375 -1.421875 31.78125 -1.421875 
Q 19.734375 -1.421875 13.25 4.234375 
Q 6.78125 9.90625 6.78125 20.515625 
Q 6.78125 27.484375 10.78125 32.3125 
Q 14.796875 37.15625 21.921875 38.8125 
z
M 18.3125 54.390625 
Q 18.3125 48.734375 21.84375 45.5625 
Q 25.390625 42.390625 31.78125 42.390625 
Q 38.140625 42.390625 41.71875 45.5625 
Q 45.3125 48.734375 45.3125 54.390625 
Q 45.3125 60.0625 41.71875 63.234375 
Q 38.140625 66.40625 31.78125 66.40625 
Q 25.390625 66.40625 21.84375 63.234375 
Q 18.3125 60.0625 18.3125 54.390625 
z
" id="DejaVuSans-38"/>
      </defs>
      <g transform="translate(324.272597 322.182437)scale(0.1 -0.1)">
       <use xlink:href="#DejaVuSans-38"/>
       <use x="63.623047" xlink:href="#DejaVuSans-30"/>
       <use x="127.246094" xlink:href="#DejaVuSans-30"/>
      </g>
     </g>
    </g>
    <g id="xtick_6">
     <g id="line2d_6">
      <g>
       <use style="stroke:#000000;stroke-width:0.8;" x="398.812252" xlink:href="#md946b16eab" y="307.584"/>
      </g>
     </g>
     <g id="text_6">
      <!-- 1000 -->
      <defs>
       <path d="M 12.40625 8.296875 
L 28.515625 8.296875 
L 28.515625 63.921875 
L 10.984375 60.40625 
L 10.984375 69.390625 
L 28.421875 72.90625 
L 38.28125 72.90625 
L 38.28125 8.296875 
L 54.390625 8.296875 
L 54.390625 0 
L 12.40625 0 
z
" id="DejaVuSans-31"/>
      </defs>
      <g transform="translate(386.087252 322.182437)scale(0.1 -0.1)">
       <use xlink:href="#DejaVuSans-31"/>
       <use x="63.623047" xlink:href="#DejaVuSans-30"/>
       <use x="127.246094" xlink:href="#DejaVuSans-30"/>
       <use x="190.869141" xlink:href="#DejaVuSans-30"/>
      </g>
     </g>
    </g>
   </g>
   <g id="matplotlib.axis_2">
    <g id="ytick_1">
     <g id="line2d_7">
      <defs>
       <path d="M 0 0 
L -3.5 0 
" id="m69451924a6" style="stroke:#000000;stroke-width:0.8;"/>
      </defs>
      <g>
       <use style="stroke:#000000;stroke-width:0.8;" x="57.6" xlink:href="#m69451924a6" y="285.968354"/>
      </g>
     </g>
     <g id="text_7">
      <!-- −140 -->
      <defs>
       <path d="M 10.59375 35.5 
L 73.1875 35.5 
L 73.1875 27.203125 
L 10.59375 27.203125 
z
" id="DejaVuSans-2212"/>
      </defs>
      <g transform="translate(23.132812 289.767573)scale(0.1 -0.1)">
       <use xlink:href="#DejaVuSans-2212"/>
       <use x="83.789062" xlink:href="#DejaVuSans-31"/>
       <use x="147.412109" xlink:href="#DejaVuSans-34"/>
       <use x="211.035156" xlink:href="#DejaVuSans-30"/>
      </g>
     </g>
    </g>
    <g id="ytick_2">
     <g id="line2d_8">
      <g>
       <use style="stroke:#000000;stroke-width:0.8;" x="57.6" xlink:href="#m69451924a6" y="256.2988"/>
      </g>
     </g>
     <g id="text_8">
      <!-- −130 -->
      <defs>
       <path d="M 40.578125 39.3125 
Q 47.65625 37.796875 51.625 33 
Q 55.609375 28.21875 55.609375 21.1875 
Q 55.609375 10.40625 48.1875 4.484375 
Q 40.765625 -1.421875 27.09375 -1.421875 
Q 22.515625 -1.421875 17.65625 -0.515625 
Q 12.796875 0.390625 7.625 2.203125 
L 7.625 11.71875 
Q 11.71875 9.328125 16.59375 8.109375 
Q 21.484375 6.890625 26.8125 6.890625 
Q 36.078125 6.890625 40.9375 10.546875 
Q 45.796875 14.203125 45.796875 21.1875 
Q 45.796875 27.640625 41.28125 31.265625 
Q 36.765625 34.90625 28.71875 34.90625 
L 20.21875 34.90625 
L 20.21875 43.015625 
L 29.109375 43.015625 
Q 36.375 43.015625 40.234375 45.921875 
Q 44.09375 48.828125 44.09375 54.296875 
Q 44.09375 59.90625 40.109375 62.90625 
Q 36.140625 65.921875 28.71875 65.921875 
Q 24.65625 65.921875 20.015625 65.03125 
Q 15.375 64.15625 9.8125 62.3125 
L 9.8125 71.09375 
Q 15.4375 72.65625 20.34375 73.4375 
Q 25.25 74.21875 29.59375 74.21875 
Q 40.828125 74.21875 47.359375 69.109375 
Q 53.90625 64.015625 53.90625 55.328125 
Q 53.90625 49.265625 50.4375 45.09375 
Q 46.96875 40.921875 40.578125 39.3125 
z
" id="DejaVuSans-33"/>
      </defs>
      <g transform="translate(23.132812 260.098019)scale(0.1 -0.1)">
       <use xlink:href="#DejaVuSans-2212"/>
       <use x="83.789062" xlink:href="#DejaVuSans-31"/>
       <use x="147.412109" xlink:href="#DejaVuSans-33"/>
       <use x="211.035156" xlink:href="#DejaVuSans-30"/>
      </g>
     </g>
    </g>
    <g id="ytick_3">
     <g id="line2d_9">
      <g>
       <use style="stroke:#000000;stroke-width:0.8;" x="57.6" xlink:href="#m69451924a6" y="226.629246"/>
      </g>
     </g>
     <g id="text_9">
      <!-- −120 -->
      <g transform="translate(23.132812 230.428465)scale(0.1 -0.1)">
       <use xlink:href="#DejaVuSans-2212"/>
       <use x="83.789062" xlink:href="#DejaVuSans-31"/>
       <use x="147.412109" xlink:href="#DejaVuSans-32"/>
       <use x="211.035156" xlink:href="#DejaVuSans-30"/>
      </g>
     </g>
    </g>
    <g id="ytick_4">
     <g id="line2d_10">
      <g>
       <use style="stroke:#000000;stroke-width:0.8;" x="57.6" xlink:href="#m69451924a6" y="196.959692"/>
      </g>
     </g>
     <g id="text_10">
      <!-- −110 -->
      <g transform="translate(23.132812 200.758911)scale(0.1 -0.1)">
       <use xlink:href="#DejaVuSans-2212"/>
       <use x="83.789062" xlink:href="#DejaVuSans-31"/>
       <use x="147.412109" xlink:href="#DejaVuSans-31"/>
       <use x="211.035156" xlink:href="#DejaVuSans-30"/>
      </g>
     </g>
    </g>
    <g id="ytick_5">
     <g id="line2d_11">
      <g>
       <use style="stroke:#000000;stroke-width:0.8;" x="57.6" xlink:href="#m69451924a6" y="167.290138"/>
      </g>
     </g>
     <g id="text_11">
      <!-- −100 -->
      <g transform="translate(23.132812 171.089357)scale(0.1 -0.1)">
       <use xlink:href="#DejaVuSans-2212"/>
       <use x="83.789062" xlink:href="#DejaVuSans-31"/>
       <use x="147.412109" xlink:href="#DejaVuSans-30"/>
       <use x="211.035156" xlink:href="#DejaVuSans-30"/>
      </g>
     </g>
    </g>
    <g id="ytick_6">
     <g id="line2d_12">
      <g>
       <use style="stroke:#000000;stroke-width:0.8;" x="57.6" xlink:href="#m69451924a6" y="137.620584"/>
      </g>
     </g>
     <g id="text_12">
      <!-- −90 -->
      <defs>
       <path d="M 10.984375 1.515625 
L 10.984375 10.5 
Q 14.703125 8.734375 18.5 7.8125 
Q 22.3125 6.890625 25.984375 6.890625 
Q 35.75 6.890625 40.890625 13.453125 
Q 46.046875 20.015625 46.78125 33.40625 
Q 43.953125 29.203125 39.59375 26.953125 
Q 35.25 24.703125 29.984375 24.703125 
Q 19.046875 24.703125 12.671875 31.3125 
Q 6.296875 37.9375 6.296875 49.421875 
Q 6.296875 60.640625 12.9375 67.421875 
Q 19.578125 74.21875 30.609375 74.21875 
Q 43.265625 74.21875 49.921875 64.515625 
Q 56.59375 54.828125 56.59375 36.375 
Q 56.59375 19.140625 48.40625 8.859375 
Q 40.234375 -1.421875 26.421875 -1.421875 
Q 22.703125 -1.421875 18.890625 -0.6875 
Q 15.09375 0.046875 10.984375 1.515625 
z
M 30.609375 32.421875 
Q 37.25 32.421875 41.125 36.953125 
Q 45.015625 41.5 45.015625 49.421875 
Q 45.015625 57.28125 41.125 61.84375 
Q 37.25 66.40625 30.609375 66.40625 
Q 23.96875 66.40625 20.09375 61.84375 
Q 16.21875 57.28125 16.21875 49.421875 
Q 16.21875 41.5 20.09375 36.953125 
Q 23.96875 32.421875 30.609375 32.421875 
z
" id="DejaVuSans-39"/>
      </defs>
      <g transform="translate(29.495313 141.419803)scale(0.1 -0.1)">
       <use xlink:href="#DejaVuSans-2212"/>
       <use x="83.789062" xlink:href="#DejaVuSans-39"/>
       <use x="147.412109" xlink:href="#DejaVuSans-30"/>
      </g>
     </g>
    </g>
    <g id="ytick_7">
     <g id="line2d_13">
      <g>
       <use style="stroke:#000000;stroke-width:0.8;" x="57.6" xlink:href="#m69451924a6" y="107.95103"/>
      </g>
     </g>
     <g id="text_13">
      <!-- −80 -->
      <g transform="translate(29.495313 111.750249)scale(0.1 -0.1)">
       <use xlink:href="#DejaVuSans-2212"/>
       <use x="83.789062" xlink:href="#DejaVuSans-38"/>
       <use x="147.412109" xlink:href="#DejaVuSans-30"/>
      </g>
     </g>
    </g>
    <g id="ytick_8">
     <g id="line2d_14">
      <g>
       <use style="stroke:#000000;stroke-width:0.8;" x="57.6" xlink:href="#m69451924a6" y="78.281476"/>
      </g>
     </g>
     <g id="text_14">
      <!-- −70 -->
      <defs>
       <path d="M 8.203125 72.90625 
L 55.078125 72.90625 
L 55.078125 68.703125 
L 28.609375 0 
L 18.3125 0 
L 43.21875 64.59375 
L 8.203125 64.59375 
z
" id="DejaVuSans-37"/>
      </defs>
      <g transform="translate(29.495313 82.080695)scale(0.1 -0.1)">
       <use xlink:href="#DejaVuSans-2212"/>
       <use x="83.789062" xlink:href="#DejaVuSans-37"/>
       <use x="147.412109" xlink:href="#DejaVuSans-30"/>
      </g>
     </g>
    </g>
    <g id="ytick_9">
     <g id="line2d_15">
      <g>
       <use style="stroke:#000000;stroke-width:0.8;" x="57.6" xlink:href="#m69451924a6" y="48.611922"/>
      </g>
     </g>
     <g id="text_15">
      <!-- −60 -->
      <g transform="translate(29.495313 52.411141)scale(0.1 -0.1)">
       <use xlink:href="#DejaVuSans-2212"/>
       <use x="83.789062" xlink:href="#DejaVuSans-36"/>
       <use x="147.412109" xlink:href="#DejaVuSans-30"/>
      </g>
     </g>
    </g>
   </g>
   <g id="line2d_16">
    <path clip-path="url(#p36fc7a4cbe)" d="M 73.832727 53.568 
L 74.157707 53.864714 
L 74.482686 54.161427 
L 75.457625 54.161427 
L 75.782604 53.864714 
L 76.107584 53.864714 
L 76.432563 54.161427 
L 76.757543 53.864714 
L 77.082523 54.458096 
L 78.382441 54.458096 
L 78.70742 55.051478 
L 79.0324 55.051478 
L 79.357379 54.458096 
L 79.682359 54.458096 
L 80.007338 55.051478 
L 80.332318 55.348191 
L 80.657297 55.051478 
L 80.982277 55.051478 
L 81.307256 55.644905 
L 81.632236 55.051478 
L 81.957215 54.754809 
L 82.282195 55.051478 
L 82.607174 55.644905 
L 83.257133 55.644905 
L 84.232072 54.754809 
L 84.557052 55.051478 
L 84.882031 55.051478 
L 85.207011 54.458096 
L 85.53199 54.458096 
L 86.181949 53.864714 
L 86.506929 54.458096 
L 86.831908 54.754809 
L 87.481867 54.754809 
L 87.806847 54.458096 
L 88.131826 55.051478 
L 88.456806 55.051478 
L 88.781785 54.754809 
L 89.106765 55.348191 
L 90.406683 55.348191 
L 90.731663 55.941573 
L 91.056642 56.238287 
L 91.381622 55.644905 
L 92.35656 56.534955 
L 92.68154 55.941573 
L 93.006519 55.644905 
L 93.331499 56.238287 
L 93.656478 56.238287 
L 93.981458 55.644905 
L 94.306437 55.941573 
L 94.631417 55.644905 
L 94.956396 55.644905 
L 95.606355 56.238287 
L 95.931335 55.941573 
L 96.581294 55.941573 
L 96.906274 55.644905 
L 97.231253 55.644905 
L 97.556233 55.941573 
L 97.881212 55.348191 
L 98.206192 55.644905 
L 98.531171 55.644905 
L 98.856151 55.941573 
L 99.18113 55.941573 
L 99.50611 55.644905 
L 100.156069 56.238287 
L 100.481048 55.941573 
L 101.131007 55.941573 
L 101.455987 56.238287 
L 101.780966 55.941573 
L 102.105946 55.051478 
L 102.755905 55.051478 
L 103.080885 55.644905 
L 103.405864 55.051478 
L 103.730844 55.348191 
L 104.055823 55.051478 
L 104.380803 55.051478 
L 104.705782 55.348191 
L 105.030762 55.051478 
L 105.355741 55.644905 
L 105.680721 55.644905 
L 106.0057 55.051478 
L 106.33068 55.348191 
L 106.980639 55.348191 
L 107.630598 55.941573 
L 107.955577 55.644905 
L 108.605536 55.644905 
L 108.930516 55.348191 
L 110.230434 56.534955 
L 110.555414 56.534955 
L 110.880393 56.831669 
L 111.205373 56.534955 
L 111.530352 56.534955 
L 111.855332 56.831669 
L 112.180311 56.831669 
L 112.505291 56.238287 
L 112.83027 56.238287 
L 113.15525 56.831669 
L 113.480229 56.831669 
L 114.130188 57.425051 
L 114.780147 57.425051 
L 115.430106 58.018433 
L 115.755086 57.425051 
L 116.080066 57.128383 
L 116.405045 57.425051 
L 116.730025 57.425051 
L 117.379984 58.018433 
L 118.029943 57.425051 
L 118.354922 58.018433 
L 118.679902 57.128383 
L 119.004881 56.831669 
L 119.329861 57.128383 
L 119.65484 56.831669 
L 119.97982 56.831669 
L 120.629779 57.425051 
L 120.954758 57.425051 
L 121.279738 57.128383 
L 121.604717 57.128383 
L 122.254676 56.534955 
L 123.229615 56.534955 
L 123.554595 56.238287 
L 123.879574 56.534955 
L 124.854513 56.534955 
L 125.179492 55.941573 
L 125.504472 56.534955 
L 125.829451 56.238287 
L 126.154431 56.534955 
L 126.47941 56.534955 
L 126.80439 56.831669 
L 127.129369 56.831669 
L 127.454349 56.238287 
L 127.779328 56.534955 
L 128.104308 57.128383 
L 128.429287 56.831669 
L 129.079247 58.018433 
L 129.729206 57.425051 
L 130.379165 57.425051 
L 130.704144 58.018433 
L 131.029124 58.018433 
L 131.679083 57.425051 
L 132.004062 57.721765 
L 132.654021 57.128383 
L 132.979001 57.425051 
L 133.62896 56.831669 
L 133.953939 57.128383 
L 134.278919 56.534955 
L 134.928878 57.128383 
L 135.253857 56.831669 
L 135.903817 57.425051 
L 136.228796 58.018433 
L 136.553776 57.721765 
L 136.878755 57.721765 
L 137.203735 58.315147 
L 137.528714 58.018433 
L 137.853694 58.61186 
L 138.178673 58.018433 
L 138.828632 57.425051 
L 139.153612 56.534955 
L 139.478591 56.238287 
L 140.12855 57.425051 
L 140.45353 57.721765 
L 140.778509 56.831669 
L 141.428468 57.425051 
L 141.753448 57.128383 
L 142.078428 57.425051 
L 142.403407 57.128383 
L 142.728387 57.128383 
L 143.053366 56.831669 
L 143.378346 57.128383 
L 143.703325 58.018433 
L 145.328223 58.018433 
L 145.653202 94.511994 
L 145.978182 290.33105 
L 146.303161 290.627763 
L 146.628141 290.627763 
L 146.95312 290.924477 
L 147.603079 289.737668 
L 147.928059 290.034336 
L 148.253038 290.627763 
L 148.578018 290.627763 
L 148.902998 290.924477 
L 149.227977 290.33105 
L 149.552957 290.33105 
L 149.877936 290.627763 
L 150.202916 290.627763 
L 150.527895 290.33105 
L 150.852875 290.33105 
L 151.177854 290.627763 
L 151.502834 290.33105 
L 151.827813 290.627763 
L 152.152793 290.33105 
L 153.452711 290.33105 
L 153.77769 290.627763 
L 154.752629 290.627763 
L 155.077609 290.034336 
L 155.402588 290.627763 
L 155.727568 290.33105 
L 156.377527 290.33105 
L 156.702506 290.924477 
L 157.352465 290.33105 
L 157.677445 290.33105 
L 158.002424 289.737668 
L 158.652383 290.33105 
L 158.977363 290.034336 
L 159.302342 290.33105 
L 159.627322 290.33105 
L 159.952301 290.034336 
L 160.277281 290.034336 
L 160.60226 290.33105 
L 162.227158 290.33105 
L 162.552138 290.627763 
L 162.877117 290.034336 
L 163.527076 290.034336 
L 163.852056 289.737668 
L 164.177035 290.034336 
L 164.502015 289.737668 
L 164.826994 290.33105 
L 165.151974 290.034336 
L 165.476953 290.034336 
L 165.801933 289.737668 
L 166.776871 290.627763 
L 167.101851 290.33105 
L 167.42683 290.33105 
L 167.75181 290.924477 
L 168.07679 290.627763 
L 168.401769 290.627763 
L 168.726749 290.924477 
L 169.051728 290.924477 
L 169.376708 291.221145 
L 169.701687 291.221145 
L 170.026667 290.924477 
L 170.676626 291.517814 
L 171.001605 291.221145 
L 171.326585 291.221145 
L 171.976544 291.814527 
L 172.951482 290.924477 
L 173.601441 291.517814 
L 173.926421 291.517814 
L 174.2514 290.924477 
L 174.57638 290.924477 
L 174.90136 291.221145 
L 175.226339 290.627763 
L 176.201278 290.627763 
L 176.526257 290.33105 
L 177.176216 290.924477 
L 177.501196 290.33105 
L 177.826175 290.33105 
L 178.151155 290.627763 
L 178.476134 290.627763 
L 178.801114 290.33105 
L 179.451073 290.33105 
L 179.776052 290.627763 
L 180.426011 290.627763 
L 180.750991 290.33105 
L 181.075971 290.627763 
L 181.40095 290.33105 
L 181.72593 290.33105 
L 182.050909 290.034336 
L 182.375889 290.33105 
L 182.700868 290.924477 
L 183.350827 289.737668 
L 184.000786 289.737668 
L 184.325766 290.33105 
L 184.650745 289.440999 
L 184.975725 290.034336 
L 185.300704 290.33105 
L 186.275643 290.33105 
L 186.925602 290.924477 
L 187.250581 290.924477 
L 187.575561 290.627763 
L 187.900541 290.627763 
L 188.5505 290.034336 
L 188.875479 290.034336 
L 189.200459 290.33105 
L 189.525438 290.924477 
L 189.850418 290.627763 
L 190.500377 290.627763 
L 190.825356 290.33105 
L 191.475315 290.924477 
L 192.450254 290.924477 
L 192.775233 290.034336 
L 193.100213 290.034336 
L 193.425192 290.627763 
L 194.075152 290.627763 
L 194.400131 290.034336 
L 194.725111 290.627763 
L 195.05009 290.627763 
L 195.37507 291.221145 
L 195.700049 291.221145 
L 196.025029 290.924477 
L 196.350008 291.221145 
L 196.999967 291.221145 
L 197.324947 290.924477 
L 198.949844 290.924477 
L 199.274824 290.627763 
L 199.599803 290.924477 
L 199.924783 290.924477 
L 200.574742 290.33105 
L 200.899722 290.627763 
L 201.87466 290.627763 
L 202.19964 290.33105 
L 202.524619 290.627763 
L 203.174578 290.034336 
L 203.499558 290.33105 
L 203.824537 290.33105 
L 204.149517 290.924477 
L 204.474496 290.33105 
L 204.799476 290.33105 
L 205.124455 290.627763 
L 205.449435 290.33105 
L 205.774414 290.627763 
L 206.099394 290.627763 
L 206.424373 290.33105 
L 207.074333 290.924477 
L 207.399312 290.33105 
L 207.724292 290.627763 
L 208.049271 290.627763 
L 208.374251 290.924477 
L 208.69923 290.627763 
L 209.349189 290.627763 
L 209.674169 290.924477 
L 210.324128 290.924477 
L 210.649107 293.298005 
L 211.299066 292.704623 
L 211.624046 293.001292 
L 211.949025 292.704623 
L 212.274005 293.001292 
L 212.598984 293.001292 
L 213.248943 292.407955 
L 213.573923 292.704623 
L 215.198821 292.704623 
L 215.5238 293.001292 
L 216.498739 293.001292 
L 217.148698 292.407955 
L 218.123636 292.407955 
L 218.448616 293.001292 
L 219.748534 293.001292 
L 220.073514 292.704623 
L 220.398493 293.001292 
L 221.048452 293.001292 
L 221.698411 293.594719 
L 222.023391 293.001292 
L 222.34837 293.001292 
L 222.67335 293.298005 
L 223.323309 293.298005 
L 223.648288 293.001292 
L 224.298247 293.001292 
L 224.623227 292.704623 
L 224.948206 292.704623 
L 225.273186 293.594719 
L 225.923145 293.594719 
L 226.248124 293.298005 
L 226.573104 293.594719 
L 226.898084 293.594719 
L 227.548043 293.001292 
L 227.873022 293.001292 
L 228.198002 293.594719 
L 228.847961 293.594719 
L 229.17294 293.298005 
L 229.49792 293.891432 
L 229.822899 294.188101 
L 230.472858 293.594719 
L 231.122817 294.188101 
L 231.772776 293.594719 
L 232.097756 293.594719 
L 232.747715 294.188101 
L 233.072695 293.891432 
L 233.397674 294.188101 
L 233.722654 293.891432 
L 234.047633 293.891432 
L 234.372613 294.484769 
L 234.697592 294.484769 
L 235.022572 293.891432 
L 235.347551 294.188101 
L 236.32249 294.188101 
L 236.647469 293.891432 
L 236.972449 293.891432 
L 237.297428 293.298005 
L 237.622408 293.891432 
L 237.947387 293.298005 
L 238.272367 293.298005 
L 238.597346 293.594719 
L 238.922326 293.594719 
L 239.247305 292.704623 
L 239.572285 292.704623 
L 239.897265 293.001292 
L 240.222244 293.001292 
L 240.547224 293.594719 
L 240.872203 293.298005 
L 241.197183 293.594719 
L 242.172121 293.594719 
L 242.497101 293.298005 
L 243.14706 293.298005 
L 243.472039 293.594719 
L 244.121998 293.594719 
L 244.446978 293.001292 
L 245.421916 293.001292 
L 245.746896 292.704623 
L 246.071876 293.298005 
L 246.396855 293.298005 
L 247.046814 293.891432 
L 247.371794 293.891432 
L 247.696773 294.188101 
L 248.021753 293.891432 
L 248.346732 293.298005 
L 248.671712 293.298005 
L 248.996691 293.594719 
L 249.321671 293.298005 
L 249.64665 293.594719 
L 249.97163 293.594719 
L 250.296609 293.891432 
L 250.946568 293.298005 
L 251.271548 292.704623 
L 251.596527 293.298005 
L 251.921507 293.298005 
L 252.246486 290.924477 
L 252.571466 290.627763 
L 252.896446 290.924477 
L 253.221425 290.924477 
L 253.546405 290.33105 
L 253.871384 290.627763 
L 254.196364 291.517814 
L 254.521343 290.924477 
L 255.171302 290.924477 
L 255.496282 290.627763 
L 255.821261 291.221145 
L 256.146241 291.517814 
L 256.47122 290.924477 
L 257.121179 291.517814 
L 257.446159 291.221145 
L 257.771138 291.221145 
L 258.096118 291.517814 
L 258.421097 291.221145 
L 258.746077 291.517814 
L 259.071057 291.221145 
L 259.396036 291.814527 
L 259.721016 291.814527 
L 260.045995 291.517814 
L 260.695954 291.517814 
L 261.020934 292.111241 
L 261.345913 292.111241 
L 261.995872 290.924477 
L 262.320852 291.517814 
L 262.970811 291.517814 
L 263.29579 290.924477 
L 264.270729 290.924477 
L 264.920688 290.33105 
L 265.245667 290.33105 
L 265.570647 290.627763 
L 265.895627 290.627763 
L 266.220606 290.924477 
L 266.545586 290.33105 
L 266.870565 290.33105 
L 267.195545 290.627763 
L 267.520524 290.33105 
L 267.845504 290.33105 
L 268.170483 290.924477 
L 268.820442 290.33105 
L 269.145422 290.627763 
L 269.470401 290.33105 
L 270.12036 290.924477 
L 270.44534 290.924477 
L 270.770319 290.33105 
L 271.095299 290.627763 
L 271.420278 291.221145 
L 271.745258 290.627763 
L 272.070238 290.33105 
L 272.395217 290.627763 
L 272.720197 291.221145 
L 273.695135 290.33105 
L 274.020115 290.627763 
L 274.670074 290.627763 
L 274.995053 290.924477 
L 275.320033 290.627763 
L 276.294971 290.627763 
L 276.619951 290.924477 
L 277.594889 290.924477 
L 277.919869 290.627763 
L 278.894808 290.627763 
L 279.219787 290.924477 
L 279.544767 290.627763 
L 279.869746 290.627763 
L 280.194726 290.924477 
L 280.519705 291.517814 
L 281.169664 291.517814 
L 281.494644 291.814527 
L 281.819623 291.517814 
L 282.144603 291.814527 
L 282.469582 291.814527 
L 282.794562 291.221145 
L 283.444521 291.814527 
L 283.7695 291.221145 
L 284.09448 291.517814 
L 284.419459 292.111241 
L 284.744439 292.111241 
L 285.069419 292.407955 
L 285.719378 291.814527 
L 286.044357 291.814527 
L 286.369337 292.111241 
L 287.019296 292.111241 
L 287.344275 292.407955 
L 287.669255 292.407955 
L 287.994234 292.704623 
L 288.319214 292.111241 
L 288.644193 292.704623 
L 288.969173 292.111241 
L 289.294152 291.814527 
L 289.619132 292.111241 
L 289.944111 291.814527 
L 290.269091 292.111241 
L 290.59407 291.517814 
L 290.91905 291.517814 
L 291.244029 292.111241 
L 291.569009 291.814527 
L 291.893989 292.111241 
L 292.543948 291.517814 
L 292.868927 292.111241 
L 293.193907 292.111241 
L 293.518886 291.517814 
L 293.843866 291.814527 
L 294.493825 291.814527 
L 294.818804 291.517814 
L 295.143784 291.814527 
L 295.468763 291.221145 
L 295.793743 291.221145 
L 296.118722 291.517814 
L 297.093661 291.517814 
L 297.41864 291.814527 
L 298.0686 291.814527 
L 298.393579 292.111241 
L 298.718559 291.814527 
L 299.043538 292.111241 
L 299.368518 291.517814 
L 299.693497 291.517814 
L 300.018477 291.814527 
L 300.343456 291.814527 
L 300.993415 291.221145 
L 301.318395 291.517814 
L 302.618313 291.517814 
L 302.943292 291.221145 
L 303.268272 291.517814 
L 303.593251 291.517814 
L 303.918231 291.221145 
L 304.24321 291.517814 
L 304.56819 291.517814 
L 304.89317 291.221145 
L 305.543129 291.221145 
L 305.868108 291.517814 
L 306.193088 291.517814 
L 306.518067 290.627763 
L 306.843047 290.627763 
L 307.168026 291.221145 
L 307.817985 291.814527 
L 308.142965 291.517814 
L 308.467944 291.517814 
L 308.792924 291.221145 
L 309.442883 291.814527 
L 309.767862 291.517814 
L 310.092842 291.517814 
L 310.417821 291.814527 
L 310.742801 291.814527 
L 311.067781 291.517814 
L 311.39276 291.814527 
L 312.367699 290.924477 
L 312.692678 290.924477 
L 313.017658 290.627763 
L 313.342637 290.924477 
L 313.667617 290.924477 
L 313.992596 290.627763 
L 314.642555 291.221145 
L 314.967535 291.221145 
L 315.292514 290.627763 
L 315.617494 290.924477 
L 315.942473 291.517814 
L 316.267453 291.221145 
L 316.592432 290.627763 
L 316.917412 290.627763 
L 317.242391 290.924477 
L 317.567371 290.924477 
L 317.892351 290.627763 
L 318.21733 290.924477 
L 318.54231 290.924477 
L 318.867289 290.627763 
L 319.517248 290.627763 
L 320.167207 291.221145 
L 320.492187 290.627763 
L 320.817166 291.221145 
L 321.142146 291.221145 
L 321.467125 290.627763 
L 321.792105 290.33105 
L 322.117084 290.33105 
L 322.442064 290.924477 
L 322.767043 290.924477 
L 323.092023 290.33105 
L 323.417002 290.034336 
L 323.741982 290.627763 
L 324.066962 290.33105 
L 324.391941 290.627763 
L 324.716921 290.627763 
L 325.0419 290.924477 
L 325.36688 290.627763 
L 326.016839 290.627763 
L 326.341818 291.221145 
L 326.666798 290.627763 
L 326.991777 290.33105 
L 327.316757 290.33105 
L 327.641736 290.627763 
L 328.941654 290.627763 
L 329.266634 290.33105 
L 330.241572 291.221145 
L 330.566552 290.924477 
L 331.541491 290.924477 
L 331.86647 291.517814 
L 332.19145 290.924477 
L 332.516429 290.627763 
L 332.841409 291.517814 
L 333.491368 291.517814 
L 333.816347 291.221145 
L 334.466306 291.221145 
L 335.116265 290.627763 
L 335.441245 291.221145 
L 335.766224 290.627763 
L 336.741163 291.517814 
L 337.716102 290.627763 
L 338.041081 291.221145 
L 338.366061 290.924477 
L 339.01602 290.924477 
L 339.340999 290.33105 
L 339.665979 290.034336 
L 340.315938 290.627763 
L 340.640917 290.627763 
L 340.965897 290.33105 
L 341.615856 290.924477 
L 341.940835 290.924477 
L 342.265815 290.33105 
L 342.590794 290.034336 
L 342.915774 290.034336 
L 343.240753 290.627763 
L 343.565733 290.627763 
L 343.890713 290.33105 
L 344.215692 289.737668 
L 344.865651 290.33105 
L 345.190631 290.33105 
L 345.84059 289.737668 
L 346.165569 289.737668 
L 346.490549 290.034336 
L 346.815528 290.034336 
L 347.140508 290.627763 
L 347.465487 290.034336 
L 348.440426 290.034336 
L 348.765405 290.33105 
L 350.065324 290.33105 
L 350.390303 290.924477 
L 351.040262 290.33105 
L 351.365242 290.627763 
L 352.34018 290.627763 
L 352.66516 291.221145 
L 352.990139 290.924477 
L 353.315119 291.517814 
L 353.965078 291.517814 
L 354.290057 291.221145 
L 354.615037 291.221145 
L 354.940016 290.924477 
L 355.914955 290.924477 
L 356.239934 291.221145 
L 356.564914 291.221145 
L 356.889894 291.517814 
L 357.214873 291.221145 
L 357.539853 291.221145 
L 357.864832 291.517814 
L 358.189812 291.517814 
L 358.839771 290.924477 
L 359.48973 291.517814 
L 359.814709 291.221145 
L 360.139689 291.814527 
L 360.464668 291.517814 
L 360.789648 291.517814 
L 361.114627 291.221145 
L 361.439607 291.814527 
L 362.089566 291.814527 
L 362.414545 291.517814 
L 362.739525 291.517814 
L 363.389484 292.111241 
L 363.714464 291.517814 
L 364.039443 291.517814 
L 364.364423 291.814527 
L 364.689402 291.814527 
L 365.664341 290.924477 
L 365.98932 291.517814 
L 366.3143 291.517814 
L 366.639279 291.221145 
L 367.939197 291.221145 
L 368.264177 291.517814 
L 368.589156 290.924477 
L 368.914136 290.924477 
L 369.564095 291.517814 
L 369.889075 291.221145 
L 370.214054 291.517814 
L 370.539034 291.221145 
L 370.864013 291.517814 
L 371.188993 291.517814 
L 371.513972 291.221145 
L 372.163931 291.221145 
L 372.488911 290.627763 
L 372.81389 290.627763 
L 373.463849 291.221145 
L 373.788829 291.221145 
L 374.113808 290.33105 
L 374.438788 290.924477 
L 374.763767 290.924477 
L 375.088747 290.627763 
L 375.413726 290.924477 
L 375.738706 290.627763 
L 376.063686 290.627763 
L 376.388665 290.33105 
L 376.713645 290.33105 
L 377.038624 290.924477 
L 377.363604 290.924477 
L 377.688583 290.627763 
L 378.013563 290.924477 
L 379.313481 290.924477 
L 379.63846 290.627763 
L 380.288419 291.221145 
L 380.613399 291.221145 
L 380.938378 290.924477 
L 381.263358 290.924477 
L 381.588337 291.221145 
L 381.913317 290.627763 
L 382.238296 290.33105 
L 382.563276 290.924477 
L 382.888256 291.221145 
L 383.213235 290.924477 
L 383.863194 290.924477 
L 384.188174 291.221145 
L 385.163112 291.221145 
L 385.488092 291.517814 
L 385.813071 291.221145 
L 386.138051 291.517814 
L 386.78801 290.924477 
L 387.112989 290.924477 
L 387.437969 291.221145 
L 387.762948 290.627763 
L 388.412907 290.034336 
L 388.737887 290.33105 
L 389.062867 290.924477 
L 389.387846 290.924477 
L 389.712826 290.627763 
L 390.037805 290.627763 
L 390.362785 290.924477 
L 390.687764 290.627763 
L 391.012744 290.924477 
L 391.987682 290.924477 
L 392.312662 291.221145 
L 392.962621 290.627763 
L 393.2876 290.924477 
L 393.61258 290.33105 
L 393.937559 290.627763 
L 395.562457 290.627763 
L 395.887437 290.034336 
L 396.862375 290.924477 
L 397.187355 290.627763 
L 397.512334 290.034336 
L 397.837314 290.627763 
L 398.487273 290.627763 
L 398.487273 290.627763 
" style="fill:none;stroke:#1f77b4;stroke-linecap:square;stroke-width:1.5;"/>
   </g>
   <g id="line2d_17">
    <path clip-path="url(#p36fc7a4cbe)" d="M 73.832727 55.10594 
L 74.157707 55.749461 
L 74.807666 56.143668 
L 75.782604 56.203473 
L 76.107584 55.894264 
L 76.432563 55.943565 
L 76.757543 56.295239 
L 77.082523 55.892068 
L 77.407502 56.495252 
L 77.732482 56.508562 
L 78.057461 56.380623 
L 78.70742 56.487714 
L 79.0324 57.056468 
L 79.357379 56.964633 
L 79.682359 56.297684 
L 80.007338 56.483345 
L 80.332318 57.180174 
L 80.657297 57.263995 
L 80.982277 56.82429 
L 81.307256 56.962347 
L 81.632236 57.659878 
L 81.957215 56.895706 
L 82.282195 56.589916 
L 82.932154 57.657433 
L 83.257133 57.420252 
L 83.582113 57.411718 
L 84.232072 56.975883 
L 84.557052 56.736235 
L 84.882031 57.089788 
L 85.207011 57.037612 
L 85.53199 56.351173 
L 85.85697 56.490453 
L 86.181949 56.296779 
L 86.506929 55.922491 
L 86.831908 56.587946 
L 87.156888 56.822977 
L 87.481867 56.626586 
L 87.806847 56.672877 
L 88.131826 56.459192 
L 88.456806 57.07306 
L 88.781785 57.010539 
L 89.106765 56.596344 
L 89.431744 57.325928 
L 89.756724 57.308317 
L 90.081704 57.145156 
L 90.731663 57.279999 
L 91.056642 57.842641 
L 91.381622 58.049943 
L 91.706601 57.338106 
L 92.35656 58.182001 
L 92.68154 58.280966 
L 93.006519 57.617684 
L 93.331499 57.465072 
L 93.656478 58.233159 
L 93.981458 58.07577 
L 94.306437 57.324185 
L 94.631417 57.835737 
L 95.281376 57.470187 
L 95.931335 58.101915 
L 96.256314 57.682038 
L 96.906274 57.843773 
L 97.231253 57.488613 
L 97.556233 57.509982 
L 97.881212 57.874852 
L 98.206192 57.186897 
L 98.531171 57.513445 
L 99.50611 57.749019 
L 99.831089 57.450358 
L 100.481048 58.124008 
L 100.806028 57.683034 
L 101.455987 57.845199 
L 101.780966 58.087496 
L 102.105946 57.717917 
L 102.430925 56.850434 
L 102.755905 57.077203 
L 103.080885 57.158783 
L 103.405864 57.586808 
L 103.730844 56.890976 
L 104.055823 57.237104 
L 104.705782 56.970202 
L 105.030762 57.316036 
L 105.355741 56.97079 
L 105.680721 57.545973 
L 106.0057 57.550342 
L 106.33068 56.836038 
L 106.655659 57.291611 
L 106.980639 57.367759 
L 107.305618 57.203942 
L 107.955577 57.831957 
L 108.280557 57.425594 
L 108.930516 57.576102 
L 109.255495 57.226782 
L 110.230434 58.029389 
L 110.555414 58.271187 
L 110.880393 58.257606 
L 111.205373 58.556968 
L 111.530352 58.253894 
L 111.855332 58.260775 
L 112.180311 58.644932 
L 112.505291 58.567788 
L 112.83027 57.907358 
L 113.15525 58.060604 
L 113.480229 58.757161 
L 113.805209 58.552124 
L 114.130188 58.749737 
L 114.455168 59.135863 
L 115.105127 59.025648 
L 115.755086 59.657126 
L 116.080066 58.954095 
L 116.405045 58.753902 
L 116.730025 59.248817 
L 117.055004 59.146547 
L 117.379984 59.32424 
L 117.704963 59.655361 
L 118.354922 59.009486 
L 118.679902 59.755118 
L 119.004881 58.767959 
L 119.329861 58.443923 
L 119.65484 59.022818 
L 119.97982 58.615324 
L 120.304799 58.501306 
L 120.629779 58.924804 
L 120.954758 59.16117 
L 121.279738 59.028183 
L 121.604717 58.745889 
L 121.929697 58.8559 
L 122.579656 58.272297 
L 123.229615 58.373005 
L 123.554595 58.309307 
L 123.879574 58.009605 
L 124.204554 58.366621 
L 125.179492 58.300886 
L 125.504472 57.72756 
L 125.829451 58.395595 
L 126.154431 58.090778 
L 127.129369 58.587323 
L 127.454349 58.547619 
L 127.779328 57.92644 
L 128.104308 58.35811 
L 128.429287 59.004257 
L 128.754267 58.466424 
L 129.404226 59.748191 
L 129.729206 59.224619 
L 130.054185 58.932455 
L 130.379165 59.163615 
L 130.704144 59.159608 
L 131.029124 59.669146 
L 131.354103 59.601487 
L 131.679083 59.237906 
L 132.004062 59.064265 
L 132.329042 59.467481 
L 132.979001 58.745617 
L 133.30398 59.193381 
L 133.953939 58.484872 
L 134.278919 58.923921 
L 134.603898 58.304983 
L 135.253857 58.957875 
L 135.578837 58.504814 
L 136.228796 59.190348 
L 136.553776 59.653391 
L 136.878755 59.236842 
L 137.203735 59.27478 
L 137.528714 60.013282 
L 137.853694 59.576949 
L 138.178673 60.10695 
L 138.828632 59.260837 
L 139.153612 59.141273 
L 139.478591 58.276711 
L 139.803571 58.069455 
L 140.12855 58.808749 
L 140.45353 59.22566 
L 140.778509 59.274056 
L 141.103489 58.365444 
L 141.753448 59.27976 
L 142.078428 58.734842 
L 142.403407 59.058742 
L 142.728387 58.86638 
L 143.053366 58.806961 
L 143.378346 58.560952 
L 143.703325 58.894517 
L 144.028305 59.772435 
L 144.678264 59.467346 
L 145.003243 59.630122 
L 145.653202 59.599631 
L 145.978182 99.164703 
L 146.303161 268.887852 
L 146.628141 258.391958 
L 146.95312 281.560975 
L 147.2781 294.594192 
L 147.603079 295.002456 
L 147.928059 293.827327 
L 148.253038 293.104603 
L 148.578018 292.790278 
L 148.902998 292.226821 
L 149.227977 292.132428 
L 149.552957 291.454795 
L 149.877936 291.235135 
L 150.202916 291.389965 
L 150.527895 291.327942 
L 150.852875 291.017104 
L 151.177854 290.954176 
L 151.502834 291.178046 
L 151.827813 290.913929 
L 152.152793 291.119374 
L 152.477772 290.891474 
L 153.452711 290.790517 
L 153.77769 290.773992 
L 154.10267 291.027381 
L 155.077609 291.08293 
L 155.402588 290.554287 
L 155.727568 290.987768 
L 156.052547 290.782549 
L 156.702506 290.727091 
L 157.027486 291.239979 
L 158.002424 290.749636 
L 158.327404 290.194916 
L 158.652383 290.341327 
L 158.977363 290.613367 
L 159.302342 290.358394 
L 159.627322 290.59648 
L 159.952301 290.651622 
L 160.277281 290.38103 
L 160.60226 290.350698 
L 160.92724 290.606938 
L 162.552138 290.656602 
L 162.877117 290.920946 
L 163.202097 290.435085 
L 163.852056 290.35355 
L 164.177035 290.052626 
L 164.502015 290.267352 
L 164.826994 290.034834 
L 165.151974 290.511233 
L 165.476953 290.334988 
L 165.801933 290.29954 
L 166.126912 290.060187 
L 166.776871 290.561123 
L 167.101851 290.86173 
L 167.42683 290.670365 
L 167.75181 290.665611 
L 168.07679 291.212046 
L 168.401769 291.023895 
L 168.726749 290.999946 
L 169.051728 291.297067 
L 169.376708 291.33342 
L 169.701687 291.603921 
L 170.026667 291.673097 
L 170.351646 291.431072 
L 171.001605 291.964605 
L 171.326585 291.753184 
L 171.651564 291.735618 
L 172.301523 292.289296 
L 172.951482 291.82915 
L 173.276462 291.534338 
L 174.2514 292.015219 
L 174.57638 291.526778 
L 174.90136 291.46059 
L 175.226339 291.703249 
L 175.551319 291.179088 
L 176.201278 291.083201 
L 176.526257 291.043588 
L 176.851237 290.765391 
L 177.501196 291.278641 
L 177.826175 290.782821 
L 178.151155 290.720526 
L 178.476134 290.987134 
L 178.801114 290.994423 
L 179.126093 290.729943 
L 179.776052 290.698116 
L 180.101032 290.941047 
L 180.750991 290.99157 
L 181.075971 290.74787 
L 181.40095 290.97396 
L 181.72593 290.742483 
L 182.050909 290.688609 
L 182.375889 290.427027 
L 182.700868 290.630118 
L 183.025848 291.186014 
L 183.675807 290.156526 
L 184.325766 290.035196 
L 184.650745 290.509648 
L 184.975725 289.788735 
L 185.625684 290.563115 
L 186.600622 290.653116 
L 187.250581 291.237172 
L 187.575561 291.296478 
L 187.900541 291.06713 
L 188.22552 291.05142 
L 188.875479 290.45256 
L 189.200459 290.389813 
L 189.525438 290.619388 
L 189.850418 291.164736 
L 190.175397 290.994785 
L 190.825356 291.032134 
L 191.150336 290.758826 
L 192.125274 291.308928 
L 192.775233 291.365111 
L 193.100213 290.57724 
L 193.425192 290.444411 
L 193.750172 290.93738 
L 194.400131 290.966761 
L 194.725111 290.47755 
L 195.05009 290.928189 
L 195.37507 290.994241 
L 195.700049 291.502104 
L 196.025029 291.625607 
L 196.350008 291.400242 
L 196.674988 291.66187 
L 197.324947 291.703565 
L 197.649926 291.458915 
L 198.949844 291.381182 
L 199.274824 291.380187 
L 199.599803 291.114439 
L 199.924783 291.334145 
L 200.249762 291.366379 
L 200.899722 290.796991 
L 201.224701 291.009543 
L 202.19964 291.018281 
L 202.524619 290.757694 
L 202.849599 290.9774 
L 203.499558 290.425442 
L 203.824537 290.648091 
L 204.149517 290.663483 
L 204.474496 291.17705 
L 204.799476 290.752035 
L 205.124455 290.691914 
L 205.449435 290.97577 
L 205.774414 290.724963 
L 206.099394 290.946706 
L 206.424373 291.000625 
L 206.749353 290.731844 
L 207.399312 291.271624 
L 207.724292 290.777976 
L 208.049271 290.981882 
L 208.374251 291.029508 
L 208.69923 291.270039 
L 209.02421 291.060746 
L 209.674169 291.043543 
L 209.999148 291.293264 
L 210.649107 291.345825 
L 210.974087 293.394706 
L 211.299066 293.536997 
L 211.624046 293.343142 
L 211.949025 293.713105 
L 212.274005 293.526992 
L 212.598984 293.728679 
L 212.923964 293.785586 
L 213.573923 293.250832 
L 213.898903 293.449712 
L 215.5238 293.471579 
L 215.84878 293.725012 
L 216.823718 293.809716 
L 217.798657 293.204156 
L 218.448616 293.140594 
L 218.773595 293.638044 
L 219.423554 293.757834 
L 220.073514 293.814515 
L 220.398493 293.564386 
L 220.723473 293.771054 
L 221.373432 293.798579 
L 222.023391 294.374396 
L 222.34837 293.93091 
L 222.67335 293.871513 
L 222.998329 294.126485 
L 223.648288 294.141833 
L 223.973268 293.909677 
L 224.623227 293.854853 
L 224.948206 293.58073 
L 225.273186 293.526494 
L 225.598165 294.270225 
L 226.248124 294.426187 
L 226.573104 294.237357 
L 226.898084 294.461862 
L 227.223063 294.501203 
L 227.873022 293.957077 
L 228.198002 293.901573 
L 228.522981 294.372856 
L 229.17294 294.461454 
L 229.49792 294.249671 
L 230.147879 295.062623 
L 230.797838 294.611441 
L 231.447797 295.11541 
L 232.422735 294.58885 
L 233.072695 295.092276 
L 233.397674 294.893894 
L 233.722654 295.131708 
L 234.047633 294.941882 
L 234.372613 294.891585 
L 234.697592 295.403613 
L 235.022572 295.488 
L 235.347551 295.000283 
L 235.672531 295.19862 
L 236.647469 295.21768 
L 236.972449 294.968864 
L 237.297428 294.919608 
L 237.622408 294.399024 
L 237.947387 294.786372 
L 238.272367 294.344833 
L 238.597346 294.22785 
L 238.922326 294.483502 
L 239.247305 294.498668 
L 239.572285 293.738503 
L 239.897265 293.614593 
L 240.222244 293.831583 
L 240.547224 293.813247 
L 240.872203 294.312509 
L 241.197183 294.173568 
L 241.522162 294.409482 
L 242.172121 294.493507 
L 242.497101 294.511525 
L 242.82208 294.264837 
L 243.472039 294.205802 
L 243.797019 294.437369 
L 244.446978 294.492149 
L 244.771957 294.006333 
L 246.071876 293.581454 
L 246.396855 294.036258 
L 246.721835 294.116978 
L 248.021753 295.079147 
L 248.346732 294.904714 
L 248.671712 294.369778 
L 248.996691 294.284123 
L 249.321671 294.497445 
L 249.64665 294.244691 
L 249.97163 294.449321 
L 250.296609 294.503784 
L 250.621589 294.753957 
L 251.271548 294.280954 
L 251.596527 293.736556 
L 251.921507 294.118155 
L 252.246486 294.159942 
L 252.571466 292.095894 
L 252.896446 291.486621 
L 253.221425 291.610169 
L 253.546405 291.464302 
L 253.871384 290.87006 
L 254.196364 291.048477 
L 254.521343 291.842279 
L 254.846323 291.431163 
L 255.496282 291.425413 
L 255.821261 291.133408 
L 256.47122 291.933457 
L 256.7962 291.468784 
L 257.446159 291.993534 
L 257.771138 291.76595 
L 258.096118 291.742726 
L 258.421097 292.009469 
L 258.746077 291.789809 
L 259.071057 292.002543 
L 259.396036 291.806876 
L 259.721016 292.261092 
L 260.045995 292.360555 
L 260.370975 292.118711 
L 261.020934 292.108978 
L 261.345913 292.594114 
L 261.670893 292.685201 
L 262.320852 291.638328 
L 262.645831 292.047543 
L 263.29579 292.04365 
L 263.62077 291.557155 
L 264.920688 291.125304 
L 265.245667 290.812338 
L 265.570647 290.752307 
L 265.895627 290.98075 
L 266.220606 290.995962 
L 266.545586 291.264788 
L 266.870565 290.799164 
L 267.195545 290.726683 
L 267.520524 290.988537 
L 267.845504 290.730984 
L 268.170483 290.6863 
L 268.495463 291.223545 
L 269.145422 290.740808 
L 269.470401 290.99157 
L 269.795381 290.7495 
L 270.770319 291.309109 
L 271.095299 290.807494 
L 271.420278 291.01063 
L 271.745258 291.563539 
L 272.395217 290.77852 
L 272.720197 291.022084 
L 273.045176 291.549097 
L 273.695135 291.08877 
L 274.020115 290.814918 
L 274.345094 291.013256 
L 274.995053 291.003884 
L 275.320033 291.283168 
L 275.645012 291.067628 
L 276.619951 291.02969 
L 276.94493 291.289144 
L 277.919869 291.368099 
L 278.244848 291.109731 
L 279.219787 291.032361 
L 279.544767 291.290819 
L 279.869746 291.06971 
L 280.194726 291.036616 
L 280.519705 291.310694 
L 280.844685 291.853733 
L 281.494644 292.003448 
L 281.819623 292.306726 
L 282.144603 292.116764 
L 282.469582 292.338507 
L 282.794562 292.397859 
L 283.119541 291.89226 
L 283.7695 292.347698 
L 284.09448 291.861203 
L 284.419459 292.041069 
L 284.744439 292.594204 
L 285.069419 292.666006 
L 285.394398 292.955929 
L 286.369337 292.491256 
L 286.694316 292.717299 
L 287.344275 292.746092 
L 287.669255 293.019627 
L 287.994234 293.073682 
L 288.319214 293.341195 
L 288.644193 292.906809 
L 288.969173 293.337166 
L 289.619132 292.56686 
L 289.944111 292.777738 
L 290.269091 292.527428 
L 290.59407 292.711505 
L 290.91905 292.254844 
L 291.244029 292.154567 
L 291.569009 292.647942 
L 291.893989 292.452412 
L 292.218968 292.670714 
L 292.868927 292.196715 
L 293.193907 292.657631 
L 293.518886 292.724905 
L 293.843866 292.218536 
L 294.168845 292.41212 
L 294.818804 292.415379 
L 295.143784 292.172902 
L 295.468763 292.382104 
L 295.793743 291.91141 
L 296.118722 291.807012 
L 296.443702 292.048358 
L 297.41864 292.076834 
L 297.74362 292.334206 
L 298.393579 292.396275 
L 298.718559 292.671122 
L 299.043538 292.473237 
L 299.368518 292.692717 
L 299.693497 292.245383 
L 300.018477 292.148274 
L 300.343456 292.39134 
L 300.668436 292.401436 
L 301.318395 291.869805 
L 301.643374 292.066376 
L 302.943292 292.08281 
L 303.268272 291.830282 
L 303.593251 292.034867 
L 303.918231 292.069591 
L 304.24321 291.808054 
L 304.56819 292.027895 
L 304.89317 292.067735 
L 305.218149 291.806741 
L 305.868108 291.767082 
L 306.193088 291.997563 
L 306.518067 292.039168 
L 306.843047 291.270356 
L 307.168026 291.154143 
L 307.493006 291.647835 
L 308.142965 292.232797 
L 308.467944 292.082222 
L 308.792924 292.080456 
L 309.117903 291.844905 
L 309.767862 292.319991 
L 310.092842 292.106714 
L 310.417821 292.087519 
L 310.742801 292.354217 
L 311.067781 292.387446 
L 311.39276 292.143565 
L 311.71774 292.370379 
L 312.367699 291.851017 
L 312.692678 291.543755 
L 313.017658 291.46892 
L 313.342637 291.162699 
L 313.667617 291.352797 
L 313.992596 291.376384 
L 314.317576 291.09873 
L 315.292514 291.667076 
L 315.617494 291.167905 
L 315.942473 291.369864 
L 316.267453 291.909871 
L 316.592432 291.721674 
L 316.917412 291.182211 
L 317.242391 291.127523 
L 317.567371 291.357867 
L 317.892351 291.354562 
L 318.21733 291.089313 
L 318.54231 291.328893 
L 318.867289 291.365971 
L 319.192269 291.091667 
L 319.842228 291.055495 
L 320.492187 291.598489 
L 320.817166 291.129379 
L 321.142146 291.59953 
L 321.467125 291.69347 
L 321.792105 291.155365 
L 322.117084 290.833027 
L 322.442064 290.77449 
L 322.767043 291.248535 
L 323.092023 291.304356 
L 323.741982 290.477686 
L 324.066962 290.948607 
L 324.391941 290.718489 
L 324.716921 290.928959 
L 325.0419 290.997094 
L 325.36688 291.262841 
L 325.691859 291.059252 
L 326.341818 291.043588 
L 326.666798 291.55453 
L 327.316757 290.783907 
L 327.641736 290.757423 
L 327.966716 290.978487 
L 329.266634 291.020771 
L 329.591613 290.756427 
L 330.241572 291.274521 
L 330.566552 291.571416 
L 330.891532 291.384125 
L 331.86647 291.381952 
L 332.19145 291.891762 
L 332.841409 291.139158 
L 333.166388 291.891083 
L 333.816347 291.993669 
L 334.141327 291.800493 
L 334.791286 291.760473 
L 335.441245 291.162111 
L 335.766224 291.629908 
L 336.091204 291.158534 
L 336.416183 291.329301 
L 337.066143 291.924584 
L 337.716102 291.473311 
L 338.041081 291.178544 
L 338.366061 291.633031 
L 338.69104 291.42315 
L 339.340999 291.397299 
L 339.990958 290.495705 
L 340.965897 290.963683 
L 341.290876 290.723921 
L 341.940835 291.272665 
L 342.265815 291.309245 
L 342.915774 290.481082 
L 343.240753 290.417972 
L 343.565733 290.891972 
L 343.890713 290.947883 
L 344.215692 290.699203 
L 344.540672 290.166078 
L 345.51561 290.611284 
L 346.165569 290.083094 
L 346.490549 290.033159 
L 346.815528 290.262779 
L 347.140508 290.277312 
L 347.465487 290.813198 
L 347.790467 290.392892 
L 348.765405 290.323037 
L 349.090385 290.577738 
L 350.390303 290.661763 
L 350.715283 291.192896 
L 351.365242 290.735013 
L 351.690221 290.987043 
L 352.66516 291.013618 
L 352.990139 291.545294 
L 353.315119 291.375976 
L 353.640098 291.870529 
L 354.290057 292.014585 
L 354.615037 291.802893 
L 354.940016 291.76921 
L 355.264996 291.496808 
L 356.239934 291.390101 
L 356.564914 291.644712 
L 356.889894 291.689395 
L 357.214873 291.95383 
L 357.539853 291.771157 
L 357.864832 291.742997 
L 358.189812 292.005531 
L 358.514791 292.038851 
L 359.16475 291.50636 
L 359.814709 291.980767 
L 360.139689 291.761423 
L 360.464668 292.246197 
L 361.439607 291.840423 
L 361.764586 292.288391 
L 362.414545 292.371601 
L 362.739525 292.156921 
L 363.064505 292.12111 
L 363.714464 292.642329 
L 364.039443 292.192822 
L 364.364423 292.131659 
L 364.689402 292.385771 
L 365.014382 292.397361 
L 365.98932 291.549278 
L 366.3143 291.983845 
L 366.639279 292.036497 
L 366.964259 291.780347 
L 368.264177 291.738153 
L 368.589156 291.989459 
L 368.914136 291.520983 
L 369.239115 291.440761 
L 369.889075 291.958855 
L 370.214054 291.755312 
L 370.539034 291.993307 
L 370.864013 291.803028 
L 371.188993 292.005802 
L 371.513972 292.057956 
L 371.838952 291.803119 
L 372.488911 291.764683 
L 372.81389 291.215803 
L 373.13887 291.119374 
L 373.788829 291.619042 
L 374.113808 291.664133 
L 374.438788 290.903788 
L 374.763767 291.325226 
L 375.088747 291.383989 
L 375.413726 291.079036 
L 375.738706 291.324275 
L 376.063686 291.101265 
L 376.388665 291.046621 
L 376.713645 290.784631 
L 377.038624 290.723152 
L 377.363604 291.233731 
L 377.688583 291.300915 
L 378.013563 291.053639 
L 378.338542 291.316353 
L 379.313481 291.370317 
L 379.63846 291.376519 
L 379.96344 291.11213 
L 380.938378 291.664133 
L 381.263358 291.43062 
L 381.588337 291.412782 
L 381.913317 291.668887 
L 382.563276 290.819084 
L 383.213235 291.60039 
L 383.538215 291.375569 
L 384.188174 291.398703 
L 384.513153 291.645798 
L 385.488092 291.72258 
L 385.813071 291.981446 
L 386.138051 291.778446 
L 386.46303 291.997246 
L 387.437969 291.448683 
L 387.762948 291.681925 
L 388.412907 290.82266 
L 388.737887 290.507611 
L 389.062867 290.675752 
L 389.387846 291.202629 
L 389.712826 291.274612 
L 390.037805 291.047255 
L 390.362785 291.050017 
L 390.687764 291.314814 
L 391.012744 291.075007 
L 391.337723 291.3025 
L 392.312662 291.369638 
L 392.637641 291.637604 
L 393.2876 291.12535 
L 393.61258 291.355242 
L 393.937559 290.842218 
L 394.262539 291.002436 
L 395.237477 291.019368 
L 395.887437 291.023397 
L 396.212416 290.49326 
L 396.862375 290.952727 
L 397.187355 291.230607 
L 397.512334 291.032044 
L 397.837314 290.496021 
L 398.162293 290.951459 
L 398.487273 291.002028 
L 398.487273 291.002028 
" style="fill:none;stroke:#ff7f0e;stroke-linecap:square;stroke-width:1.5;"/>
   </g>
   <g id="patch_3">
    <path d="M 57.6 307.584 
L 57.6 41.472 
" style="fill:none;stroke:#000000;stroke-linecap:square;stroke-linejoin:miter;stroke-width:0.8;"/>
   </g>
   <g id="patch_4">
    <path d="M 414.72 307.584 
L 414.72 41.472 
" style="fill:none;stroke:#000000;stroke-linecap:square;stroke-linejoin:miter;stroke-width:0.8;"/>
   </g>
   <g id="patch_5">
    <path d="M 57.6 307.584 
L 414.72 307.584 
" style="fill:none;stroke:#000000;stroke-linecap:square;stroke-linejoin:miter;stroke-width:0.8;"/>
   </g>
   <g id="patch_6">
    <path d="M 57.6 41.472 
L 414.72 41.472 
" style="fill:none;stroke:#000000;stroke-linecap:square;stroke-linejoin:miter;stroke-width:0.8;"/>
   </g>
  </g>
 </g>
 <defs>
  <clipPath id="p36fc7a4cbe">
   <rect height="266.112" width="357.12" x="57.6" y="41.472"/>
  </clipPath>
 </defs>
</svg>
