<?xml version="1.0" encoding="utf-8" standalone="no"?>
<!DOCTYPE svg PUBLIC "-//W3C//DTD SVG 1.1//EN"
  "http://www.w3.org/Graphics/SVG/1.1/DTD/svg11.dtd">
<!-- Created with matplotlib (http://matplotlib.org/) -->
<svg height="345pt" version="1.1" viewBox="0 0 460 345" width="460pt" xmlns="http://www.w3.org/2000/svg" xmlns:xlink="http://www.w3.org/1999/xlink">
 <defs>
  <style type="text/css">
*{stroke-linecap:butt;stroke-linejoin:round;}
  </style>
 </defs>
 <g id="figure_1">
  <g id="patch_1">
   <path d="M 0 345.6 
L 460.8 345.6 
L 460.8 0 
L 0 0 
z
" style="fill:#ffffff;"/>
  </g>
  <g id="axes_1">
   <g id="patch_2">
    <path d="M 57.6 307.584 
L 414.72 307.584 
L 414.72 41.472 
L 57.6 41.472 
z
" style="fill:#ffffff;"/>
   </g>
   <g id="matplotlib.axis_1">
    <g id="xtick_1">
     <g id="line2d_1">
      <defs>
       <path d="M 0 0 
L 0 3.5 
" id="m91fbfeee55" style="stroke:#000000;stroke-width:0.8;"/>
      </defs>
      <g>
       <use style="stroke:#000000;stroke-width:0.8;" x="73.832727" xlink:href="#m91fbfeee55" y="307.584"/>
      </g>
     </g>
     <g id="text_1">
      <!-- 0 -->
      <defs>
       <path d="M 31.78125 66.40625 
Q 24.171875 66.40625 20.328125 58.90625 
Q 16.5 51.421875 16.5 36.375 
Q 16.5 21.390625 20.328125 13.890625 
Q 24.171875 6.390625 31.78125 6.390625 
Q 39.453125 6.390625 43.28125 13.890625 
Q 47.125 21.390625 47.125 36.375 
Q 47.125 51.421875 43.28125 58.90625 
Q 39.453125 66.40625 31.78125 66.40625 
z
M 31.78125 74.21875 
Q 44.046875 74.21875 50.515625 64.515625 
Q 56.984375 54.828125 56.984375 36.375 
Q 56.984375 17.96875 50.515625 8.265625 
Q 44.046875 -1.421875 31.78125 -1.421875 
Q 19.53125 -1.421875 13.0625 8.265625 
Q 6.59375 17.96875 6.59375 36.375 
Q 6.59375 54.828125 13.0625 64.515625 
Q 19.53125 74.21875 31.78125 74.21875 
z
" id="DejaVuSans-30"/>
      </defs>
      <g transform="translate(70.651477 322.182437)scale(0.1 -0.1)">
       <use xlink:href="#DejaVuSans-30"/>
      </g>
     </g>
    </g>
    <g id="xtick_2">
     <g id="line2d_2">
      <g>
       <use style="stroke:#000000;stroke-width:0.8;" x="127.539021" xlink:href="#m91fbfeee55" y="307.584"/>
      </g>
     </g>
     <g id="text_2">
      <!-- 200 -->
      <defs>
       <path d="M 19.1875 8.296875 
L 53.609375 8.296875 
L 53.609375 0 
L 7.328125 0 
L 7.328125 8.296875 
Q 12.9375 14.109375 22.625 23.890625 
Q 32.328125 33.6875 34.8125 36.53125 
Q 39.546875 41.84375 41.421875 45.53125 
Q 43.3125 49.21875 43.3125 52.78125 
Q 43.3125 58.59375 39.234375 62.25 
Q 35.15625 65.921875 28.609375 65.921875 
Q 23.96875 65.921875 18.8125 64.3125 
Q 13.671875 62.703125 7.8125 59.421875 
L 7.8125 69.390625 
Q 13.765625 71.78125 18.9375 73 
Q 24.125 74.21875 28.421875 74.21875 
Q 39.75 74.21875 46.484375 68.546875 
Q 53.21875 62.890625 53.21875 53.421875 
Q 53.21875 48.921875 51.53125 44.890625 
Q 49.859375 40.875 45.40625 35.40625 
Q 44.1875 33.984375 37.640625 27.21875 
Q 31.109375 20.453125 19.1875 8.296875 
z
" id="DejaVuSans-32"/>
      </defs>
      <g transform="translate(117.995271 322.182437)scale(0.1 -0.1)">
       <use xlink:href="#DejaVuSans-32"/>
       <use x="63.623047" xlink:href="#DejaVuSans-30"/>
       <use x="127.246094" xlink:href="#DejaVuSans-30"/>
      </g>
     </g>
    </g>
    <g id="xtick_3">
     <g id="line2d_3">
      <g>
       <use style="stroke:#000000;stroke-width:0.8;" x="181.245315" xlink:href="#m91fbfeee55" y="307.584"/>
      </g>
     </g>
     <g id="text_3">
      <!-- 400 -->
      <defs>
       <path d="M 37.796875 64.3125 
L 12.890625 25.390625 
L 37.796875 25.390625 
z
M 35.203125 72.90625 
L 47.609375 72.90625 
L 47.609375 25.390625 
L 58.015625 25.390625 
L 58.015625 17.1875 
L 47.609375 17.1875 
L 47.609375 0 
L 37.796875 0 
L 37.796875 17.1875 
L 4.890625 17.1875 
L 4.890625 26.703125 
z
" id="DejaVuSans-34"/>
      </defs>
      <g transform="translate(171.701565 322.182437)scale(0.1 -0.1)">
       <use xlink:href="#DejaVuSans-34"/>
       <use x="63.623047" xlink:href="#DejaVuSans-30"/>
       <use x="127.246094" xlink:href="#DejaVuSans-30"/>
      </g>
     </g>
    </g>
    <g id="xtick_4">
     <g id="line2d_4">
      <g>
       <use style="stroke:#000000;stroke-width:0.8;" x="234.951608" xlink:href="#m91fbfeee55" y="307.584"/>
      </g>
     </g>
     <g id="text_4">
      <!-- 600 -->
      <defs>
       <path d="M 33.015625 40.375 
Q 26.375 40.375 22.484375 35.828125 
Q 18.609375 31.296875 18.609375 23.390625 
Q 18.609375 15.53125 22.484375 10.953125 
Q 26.375 6.390625 33.015625 6.390625 
Q 39.65625 6.390625 43.53125 10.953125 
Q 47.40625 15.53125 47.40625 23.390625 
Q 47.40625 31.296875 43.53125 35.828125 
Q 39.65625 40.375 33.015625 40.375 
z
M 52.59375 71.296875 
L 52.59375 62.3125 
Q 48.875 64.0625 45.09375 64.984375 
Q 41.3125 65.921875 37.59375 65.921875 
Q 27.828125 65.921875 22.671875 59.328125 
Q 17.53125 52.734375 16.796875 39.40625 
Q 19.671875 43.65625 24.015625 45.921875 
Q 28.375 48.1875 33.59375 48.1875 
Q 44.578125 48.1875 50.953125 41.515625 
Q 57.328125 34.859375 57.328125 23.390625 
Q 57.328125 12.15625 50.6875 5.359375 
Q 44.046875 -1.421875 33.015625 -1.421875 
Q 20.359375 -1.421875 13.671875 8.265625 
Q 6.984375 17.96875 6.984375 36.375 
Q 6.984375 53.65625 15.1875 63.9375 
Q 23.390625 74.21875 37.203125 74.21875 
Q 40.921875 74.21875 44.703125 73.484375 
Q 48.484375 72.75 52.59375 71.296875 
z
" id="DejaVuSans-36"/>
      </defs>
      <g transform="translate(225.407858 322.182437)scale(0.1 -0.1)">
       <use xlink:href="#DejaVuSans-36"/>
       <use x="63.623047" xlink:href="#DejaVuSans-30"/>
       <use x="127.246094" xlink:href="#DejaVuSans-30"/>
      </g>
     </g>
    </g>
    <g id="xtick_5">
     <g id="line2d_5">
      <g>
       <use style="stroke:#000000;stroke-width:0.8;" x="288.657902" xlink:href="#m91fbfeee55" y="307.584"/>
      </g>
     </g>
     <g id="text_5">
      <!-- 800 -->
      <defs>
       <path d="M 31.78125 34.625 
Q 24.75 34.625 20.71875 30.859375 
Q 16.703125 27.09375 16.703125 20.515625 
Q 16.703125 13.921875 20.71875 10.15625 
Q 24.75 6.390625 31.78125 6.390625 
Q 38.8125 6.390625 42.859375 10.171875 
Q 46.921875 13.96875 46.921875 20.515625 
Q 46.921875 27.09375 42.890625 30.859375 
Q 38.875 34.625 31.78125 34.625 
z
M 21.921875 38.8125 
Q 15.578125 40.375 12.03125 44.71875 
Q 8.5 49.078125 8.5 55.328125 
Q 8.5 64.0625 14.71875 69.140625 
Q 20.953125 74.21875 31.78125 74.21875 
Q 42.671875 74.21875 48.875 69.140625 
Q 55.078125 64.0625 55.078125 55.328125 
Q 55.078125 49.078125 51.53125 44.71875 
Q 48 40.375 41.703125 38.8125 
Q 48.828125 37.15625 52.796875 32.3125 
Q 56.78125 27.484375 56.78125 20.515625 
Q 56.78125 9.90625 50.3125 4.234375 
Q 43.84375 -1.421875 31.78125 -1.421875 
Q 19.734375 -1.421875 13.25 4.234375 
Q 6.78125 9.90625 6.78125 20.515625 
Q 6.78125 27.484375 10.78125 32.3125 
Q 14.796875 37.15625 21.921875 38.8125 
z
M 18.3125 54.390625 
Q 18.3125 48.734375 21.84375 45.5625 
Q 25.390625 42.390625 31.78125 42.390625 
Q 38.140625 42.390625 41.71875 45.5625 
Q 45.3125 48.734375 45.3125 54.390625 
Q 45.3125 60.0625 41.71875 63.234375 
Q 38.140625 66.40625 31.78125 66.40625 
Q 25.390625 66.40625 21.84375 63.234375 
Q 18.3125 60.0625 18.3125 54.390625 
z
" id="DejaVuSans-38"/>
      </defs>
      <g transform="translate(279.114152 322.182437)scale(0.1 -0.1)">
       <use xlink:href="#DejaVuSans-38"/>
       <use x="63.623047" xlink:href="#DejaVuSans-30"/>
       <use x="127.246094" xlink:href="#DejaVuSans-30"/>
      </g>
     </g>
    </g>
    <g id="xtick_6">
     <g id="line2d_6">
      <g>
       <use style="stroke:#000000;stroke-width:0.8;" x="342.364196" xlink:href="#m91fbfeee55" y="307.584"/>
      </g>
     </g>
     <g id="text_6">
      <!-- 1000 -->
      <defs>
       <path d="M 12.40625 8.296875 
L 28.515625 8.296875 
L 28.515625 63.921875 
L 10.984375 60.40625 
L 10.984375 69.390625 
L 28.421875 72.90625 
L 38.28125 72.90625 
L 38.28125 8.296875 
L 54.390625 8.296875 
L 54.390625 0 
L 12.40625 0 
z
" id="DejaVuSans-31"/>
      </defs>
      <g transform="translate(329.639196 322.182437)scale(0.1 -0.1)">
       <use xlink:href="#DejaVuSans-31"/>
       <use x="63.623047" xlink:href="#DejaVuSans-30"/>
       <use x="127.246094" xlink:href="#DejaVuSans-30"/>
       <use x="190.869141" xlink:href="#DejaVuSans-30"/>
      </g>
     </g>
    </g>
    <g id="xtick_7">
     <g id="line2d_7">
      <g>
       <use style="stroke:#000000;stroke-width:0.8;" x="396.07049" xlink:href="#m91fbfeee55" y="307.584"/>
      </g>
     </g>
     <g id="text_7">
      <!-- 1200 -->
      <g transform="translate(383.34549 322.182437)scale(0.1 -0.1)">
       <use xlink:href="#DejaVuSans-31"/>
       <use x="63.623047" xlink:href="#DejaVuSans-32"/>
       <use x="127.246094" xlink:href="#DejaVuSans-30"/>
       <use x="190.869141" xlink:href="#DejaVuSans-30"/>
      </g>
     </g>
    </g>
   </g>
   <g id="matplotlib.axis_2">
    <g id="ytick_1">
     <g id="line2d_8">
      <defs>
       <path d="M 0 0 
L -3.5 0 
" id="m40961d4ebf" style="stroke:#000000;stroke-width:0.8;"/>
      </defs>
      <g>
       <use style="stroke:#000000;stroke-width:0.8;" x="57.6" xlink:href="#m40961d4ebf" y="305.741813"/>
      </g>
     </g>
     <g id="text_8">
      <!-- −107.0 -->
      <defs>
       <path d="M 10.59375 35.5 
L 73.1875 35.5 
L 73.1875 27.203125 
L 10.59375 27.203125 
z
" id="DejaVuSans-2212"/>
       <path d="M 8.203125 72.90625 
L 55.078125 72.90625 
L 55.078125 68.703125 
L 28.609375 0 
L 18.3125 0 
L 43.21875 64.59375 
L 8.203125 64.59375 
z
" id="DejaVuSans-37"/>
       <path d="M 10.6875 12.40625 
L 21 12.40625 
L 21 0 
L 10.6875 0 
z
" id="DejaVuSans-2e"/>
      </defs>
      <g transform="translate(13.592188 309.541032)scale(0.1 -0.1)">
       <use xlink:href="#DejaVuSans-2212"/>
       <use x="83.789062" xlink:href="#DejaVuSans-31"/>
       <use x="147.412109" xlink:href="#DejaVuSans-30"/>
       <use x="211.035156" xlink:href="#DejaVuSans-37"/>
       <use x="274.658203" xlink:href="#DejaVuSans-2e"/>
       <use x="306.445312" xlink:href="#DejaVuSans-30"/>
      </g>
     </g>
    </g>
    <g id="ytick_2">
     <g id="line2d_9">
      <g>
       <use style="stroke:#000000;stroke-width:0.8;" x="57.6" xlink:href="#m40961d4ebf" y="267.99465"/>
      </g>
     </g>
     <g id="text_9">
      <!-- −106.8 -->
      <g transform="translate(13.592188 271.793868)scale(0.1 -0.1)">
       <use xlink:href="#DejaVuSans-2212"/>
       <use x="83.789062" xlink:href="#DejaVuSans-31"/>
       <use x="147.412109" xlink:href="#DejaVuSans-30"/>
       <use x="211.035156" xlink:href="#DejaVuSans-36"/>
       <use x="274.658203" xlink:href="#DejaVuSans-2e"/>
       <use x="306.445312" xlink:href="#DejaVuSans-38"/>
      </g>
     </g>
    </g>
    <g id="ytick_3">
     <g id="line2d_10">
      <g>
       <use style="stroke:#000000;stroke-width:0.8;" x="57.6" xlink:href="#m40961d4ebf" y="230.247486"/>
      </g>
     </g>
     <g id="text_10">
      <!-- −106.6 -->
      <g transform="translate(13.592188 234.046705)scale(0.1 -0.1)">
       <use xlink:href="#DejaVuSans-2212"/>
       <use x="83.789062" xlink:href="#DejaVuSans-31"/>
       <use x="147.412109" xlink:href="#DejaVuSans-30"/>
       <use x="211.035156" xlink:href="#DejaVuSans-36"/>
       <use x="274.658203" xlink:href="#DejaVuSans-2e"/>
       <use x="306.445312" xlink:href="#DejaVuSans-36"/>
      </g>
     </g>
    </g>
    <g id="ytick_4">
     <g id="line2d_11">
      <g>
       <use style="stroke:#000000;stroke-width:0.8;" x="57.6" xlink:href="#m40961d4ebf" y="192.500323"/>
      </g>
     </g>
     <g id="text_11">
      <!-- −106.4 -->
      <g transform="translate(13.592188 196.299542)scale(0.1 -0.1)">
       <use xlink:href="#DejaVuSans-2212"/>
       <use x="83.789062" xlink:href="#DejaVuSans-31"/>
       <use x="147.412109" xlink:href="#DejaVuSans-30"/>
       <use x="211.035156" xlink:href="#DejaVuSans-36"/>
       <use x="274.658203" xlink:href="#DejaVuSans-2e"/>
       <use x="306.445312" xlink:href="#DejaVuSans-34"/>
      </g>
     </g>
    </g>
    <g id="ytick_5">
     <g id="line2d_12">
      <g>
       <use style="stroke:#000000;stroke-width:0.8;" x="57.6" xlink:href="#m40961d4ebf" y="154.75316"/>
      </g>
     </g>
     <g id="text_12">
      <!-- −106.2 -->
      <g transform="translate(13.592188 158.552379)scale(0.1 -0.1)">
       <use xlink:href="#DejaVuSans-2212"/>
       <use x="83.789062" xlink:href="#DejaVuSans-31"/>
       <use x="147.412109" xlink:href="#DejaVuSans-30"/>
       <use x="211.035156" xlink:href="#DejaVuSans-36"/>
       <use x="274.658203" xlink:href="#DejaVuSans-2e"/>
       <use x="306.445312" xlink:href="#DejaVuSans-32"/>
      </g>
     </g>
    </g>
    <g id="ytick_6">
     <g id="line2d_13">
      <g>
       <use style="stroke:#000000;stroke-width:0.8;" x="57.6" xlink:href="#m40961d4ebf" y="117.005997"/>
      </g>
     </g>
     <g id="text_13">
      <!-- −106.0 -->
      <g transform="translate(13.592188 120.805216)scale(0.1 -0.1)">
       <use xlink:href="#DejaVuSans-2212"/>
       <use x="83.789062" xlink:href="#DejaVuSans-31"/>
       <use x="147.412109" xlink:href="#DejaVuSans-30"/>
       <use x="211.035156" xlink:href="#DejaVuSans-36"/>
       <use x="274.658203" xlink:href="#DejaVuSans-2e"/>
       <use x="306.445312" xlink:href="#DejaVuSans-30"/>
      </g>
     </g>
    </g>
    <g id="ytick_7">
     <g id="line2d_14">
      <g>
       <use style="stroke:#000000;stroke-width:0.8;" x="57.6" xlink:href="#m40961d4ebf" y="79.258834"/>
      </g>
     </g>
     <g id="text_14">
      <!-- −105.8 -->
      <defs>
       <path d="M 10.796875 72.90625 
L 49.515625 72.90625 
L 49.515625 64.59375 
L 19.828125 64.59375 
L 19.828125 46.734375 
Q 21.96875 47.46875 24.109375 47.828125 
Q 26.265625 48.1875 28.421875 48.1875 
Q 40.625 48.1875 47.75 41.5 
Q 54.890625 34.8125 54.890625 23.390625 
Q 54.890625 11.625 47.5625 5.09375 
Q 40.234375 -1.421875 26.90625 -1.421875 
Q 22.3125 -1.421875 17.546875 -0.640625 
Q 12.796875 0.140625 7.71875 1.703125 
L 7.71875 11.625 
Q 12.109375 9.234375 16.796875 8.0625 
Q 21.484375 6.890625 26.703125 6.890625 
Q 35.15625 6.890625 40.078125 11.328125 
Q 45.015625 15.765625 45.015625 23.390625 
Q 45.015625 31 40.078125 35.4375 
Q 35.15625 39.890625 26.703125 39.890625 
Q 22.75 39.890625 18.8125 39.015625 
Q 14.890625 38.140625 10.796875 36.28125 
z
" id="DejaVuSans-35"/>
      </defs>
      <g transform="translate(13.592188 83.058052)scale(0.1 -0.1)">
       <use xlink:href="#DejaVuSans-2212"/>
       <use x="83.789062" xlink:href="#DejaVuSans-31"/>
       <use x="147.412109" xlink:href="#DejaVuSans-30"/>
       <use x="211.035156" xlink:href="#DejaVuSans-35"/>
       <use x="274.658203" xlink:href="#DejaVuSans-2e"/>
       <use x="306.445312" xlink:href="#DejaVuSans-38"/>
      </g>
     </g>
    </g>
    <g id="ytick_8">
     <g id="line2d_15">
      <g>
       <use style="stroke:#000000;stroke-width:0.8;" x="57.6" xlink:href="#m40961d4ebf" y="41.51167"/>
      </g>
     </g>
     <g id="text_15">
      <!-- −105.6 -->
      <g transform="translate(13.592188 45.310889)scale(0.1 -0.1)">
       <use xlink:href="#DejaVuSans-2212"/>
       <use x="83.789062" xlink:href="#DejaVuSans-31"/>
       <use x="147.412109" xlink:href="#DejaVuSans-30"/>
       <use x="211.035156" xlink:href="#DejaVuSans-35"/>
       <use x="274.658203" xlink:href="#DejaVuSans-2e"/>
       <use x="306.445312" xlink:href="#DejaVuSans-36"/>
      </g>
     </g>
    </g>
   </g>
   <g id="line2d_16">
    <path clip-path="url(#pa8764c8cd9)" d="M 73.832727 129.061174 
L 74.101259 110.189321 
L 75.443916 110.189321 
L 75.712448 129.061174 
L 75.980979 110.189321 
L 76.24951 129.061174 
L 76.518042 110.189321 
L 76.786573 110.189321 
L 77.055105 129.061174 
L 77.323636 110.189321 
L 77.860699 110.189321 
L 78.129231 129.061174 
L 78.397762 110.189321 
L 78.666294 129.061174 
L 78.934825 110.189321 
L 79.203357 129.061174 
L 79.471888 129.061174 
L 79.74042 110.189321 
L 86.453706 110.189321 
L 86.722238 91.314587 
L 86.990769 110.189321 
L 87.259301 91.314587 
L 87.527832 110.189321 
L 92.361399 110.189321 
L 92.62993 129.061174 
L 92.898462 110.189321 
L 93.704056 110.189321 
L 93.972587 129.061174 
L 94.241119 110.189321 
L 94.778182 110.189321 
L 95.046713 129.061174 
L 95.315245 110.189321 
L 95.583776 110.189321 
L 95.852308 129.061174 
L 96.120839 110.189321 
L 96.389371 129.061174 
L 96.657902 110.189321 
L 96.926434 129.061174 
L 97.194965 110.189321 
L 97.463497 129.061174 
L 97.732028 110.189321 
L 98.000559 110.189321 
L 98.269091 129.061174 
L 98.537622 110.189321 
L 98.806154 129.061174 
L 99.343217 129.061174 
L 99.611748 110.189321 
L 99.88028 129.061174 
L 100.148811 110.189321 
L 100.685874 110.189321 
L 100.954406 129.061174 
L 101.222937 129.061174 
L 101.491469 110.189321 
L 102.297063 110.189321 
L 102.565594 129.061174 
L 102.834126 129.061174 
L 103.102657 110.189321 
L 103.371189 129.061174 
L 103.63972 110.189321 
L 104.982378 110.189321 
L 105.250909 129.061174 
L 105.519441 110.189321 
L 105.787972 129.061174 
L 106.056503 110.189321 
L 106.325035 129.061174 
L 118.14042 129.061174 
L 118.408951 147.935908 
L 118.677483 129.061174 
L 118.946014 147.935908 
L 119.214545 129.061174 
L 120.557203 129.061174 
L 120.825734 147.935908 
L 121.094266 129.061174 
L 138.28028 129.061174 
L 138.548811 147.935908 
L 139.085874 147.935908 
L 139.354406 129.061174 
L 139.622937 147.935908 
L 139.891469 129.061174 
L 140.965594 129.061174 
L 141.234126 147.935908 
L 151.438322 147.935908 
L 151.706853 129.061174 
L 154.123636 129.061174 
L 154.392168 147.935908 
L 162.716643 147.935908 
L 162.985175 166.809202 
L 163.253706 147.935908 
L 163.522238 147.935908 
L 163.790769 166.809202 
L 164.059301 147.935908 
L 168.087273 147.935908 
L 168.355804 166.809202 
L 168.624336 166.809202 
L 168.892867 147.935908 
L 169.161399 147.935908 
L 169.42993 166.809202 
L 169.698462 166.809202 
L 169.966993 147.935908 
L 170.235524 147.935908 
L 170.504056 129.061174 
L 174.532028 129.061174 
L 174.800559 110.189321 
L 175.069091 129.061174 
L 175.874685 129.061174 
L 176.411748 91.314587 
L 176.68028 110.189321 
L 177.485874 110.189321 
L 177.754406 91.314587 
L 178.022937 110.189321 
L 180.171189 110.189321 
L 180.43972 129.061174 
L 180.708252 129.061174 
L 180.976783 110.189321 
L 182.050909 110.189321 
L 182.319441 91.314587 
L 182.587972 110.189321 
L 186.078881 110.189321 
L 186.615944 147.935908 
L 186.884476 129.061174 
L 187.153007 129.061174 
L 187.421538 147.935908 
L 188.495664 147.935908 
L 188.764196 129.061174 
L 189.032727 147.935908 
L 189.301259 129.061174 
L 190.375385 129.061174 
L 190.643916 147.935908 
L 190.912448 147.935908 
L 191.180979 129.061174 
L 191.44951 147.935908 
L 191.718042 147.935908 
L 191.986573 129.061174 
L 192.255105 147.935908 
L 192.523636 129.061174 
L 203.264895 129.061174 
L 203.533427 147.935908 
L 203.801958 147.935908 
L 204.07049 129.061174 
L 204.339021 147.935908 
L 204.607552 129.061174 
L 206.218741 129.061174 
L 206.487273 147.935908 
L 206.755804 129.061174 
L 207.82993 129.061174 
L 208.098462 110.189321 
L 208.366993 129.061174 
L 208.635524 129.061174 
L 208.904056 110.189321 
L 209.172587 129.061174 
L 209.70965 129.061174 
L 209.978182 110.189321 
L 211.589371 110.189321 
L 211.857902 91.314587 
L 212.126434 129.061174 
L 212.394965 110.189321 
L 213.200559 110.189321 
L 213.469091 129.061174 
L 213.737622 110.189321 
L 214.274685 110.189321 
L 214.543217 129.061174 
L 214.811748 110.189321 
L 217.765594 110.189321 
L 218.034126 129.061174 
L 218.302657 110.189321 
L 218.83972 147.935908 
L 219.108252 129.061174 
L 219.376783 129.061174 
L 219.645315 147.935908 
L 220.987972 147.935908 
L 221.256503 129.061174 
L 221.525035 147.935908 
L 221.793566 147.935908 
L 222.062098 129.061174 
L 223.404755 129.061174 
L 223.673287 110.189321 
L 223.941818 129.061174 
L 225.284476 129.061174 
L 225.553007 147.935908 
L 225.821538 110.189321 
L 226.09007 129.061174 
L 226.627133 129.061174 
L 226.895664 110.189321 
L 227.164196 110.189321 
L 227.432727 129.061174 
L 234.683077 129.061174 
L 234.951608 110.189321 
L 238.711049 110.189321 
L 238.97958 91.314587 
L 239.248112 110.189321 
L 240.322238 110.189321 
L 240.590769 91.314587 
L 240.859301 91.314587 
L 241.127832 110.189321 
L 244.081678 110.189321 
L 244.35021 91.314587 
L 244.618741 110.189321 
L 244.887273 91.314587 
L 245.155804 110.189321 
L 245.424336 91.314587 
L 245.692867 110.189321 
L 245.961399 110.189321 
L 246.22993 91.314587 
L 246.498462 110.189321 
L 246.766993 110.189321 
L 247.035524 91.314587 
L 247.304056 110.189321 
L 247.841119 110.189321 
L 248.10965 91.314587 
L 248.378182 91.314587 
L 248.646713 110.189321 
L 249.452308 110.189321 
L 249.720839 91.314587 
L 249.989371 110.189321 
L 250.257902 110.189321 
L 250.526434 91.314587 
L 250.794965 110.189321 
L 267.712448 110.189321 
L 267.980979 129.061174 
L 268.24951 110.189321 
L 268.786573 110.189321 
L 269.055105 129.061174 
L 269.323636 110.189321 
L 269.860699 110.189321 
L 270.129231 129.061174 
L 270.397762 110.189321 
L 270.666294 110.189321 
L 270.934825 129.061174 
L 271.203357 110.189321 
L 282.213147 110.189321 
L 282.481678 129.061174 
L 282.75021 110.189321 
L 283.555804 110.189321 
L 283.824336 91.314587 
L 284.092867 110.189321 
L 287.583776 110.189321 
L 287.852308 91.314587 
L 288.120839 110.189321 
L 293.222937 110.189321 
L 293.491469 91.314587 
L 293.76 91.314587 
L 294.028531 110.189321 
L 294.565594 110.189321 
L 294.834126 91.314587 
L 295.102657 110.189321 
L 295.371189 110.189321 
L 295.63972 91.314587 
L 295.908252 110.189321 
L 296.982378 110.189321 
L 297.250909 91.314587 
L 297.519441 91.314587 
L 297.787972 110.189321 
L 302.621538 110.189321 
L 302.89007 91.314587 
L 303.158601 91.314587 
L 303.427133 110.189321 
L 310.408951 110.189321 
L 310.677483 91.314587 
L 310.946014 110.189321 
L 311.483077 110.189321 
L 311.751608 91.314587 
L 312.02014 110.189321 
L 312.288671 110.189321 
L 312.557203 91.314587 
L 312.825734 110.189321 
L 313.362797 110.189321 
L 313.631329 91.314587 
L 313.89986 91.314587 
L 314.168392 110.189321 
L 315.242517 110.189321 
L 315.511049 129.061174 
L 316.853706 129.061174 
L 317.122238 147.935908 
L 317.390769 129.061174 
L 317.659301 129.061174 
L 317.927832 110.189321 
L 318.196364 129.061174 
L 319.001958 129.061174 
L 319.27049 110.189321 
L 319.539021 129.061174 
L 319.807552 110.189321 
L 320.344615 147.935908 
L 320.613147 147.935908 
L 320.881678 129.061174 
L 325.446713 129.061174 
L 325.715245 110.189321 
L 325.983776 129.061174 
L 326.252308 129.061174 
L 326.520839 110.189321 
L 326.789371 110.189321 
L 327.057902 129.061174 
L 327.326434 129.061174 
L 327.594965 110.189321 
L 327.863497 129.061174 
L 329.206154 129.061174 
L 329.474685 110.189321 
L 329.743217 129.061174 
L 330.011748 129.061174 
L 330.28028 110.189321 
L 330.548811 110.189321 
L 330.817343 129.061174 
L 331.085874 129.061174 
L 331.354406 110.189321 
L 331.622937 110.189321 
L 331.891469 91.314587 
L 332.16 110.189321 
L 332.428531 91.314587 
L 341.021538 91.314587 
L 341.29007 110.189321 
L 341.558601 91.314587 
L 342.364196 91.314587 
L 342.632727 110.189321 
L 342.901259 91.314587 
L 343.16979 91.314587 
L 343.438322 110.189321 
L 343.706853 91.314587 
L 347.197762 91.314587 
L 347.734825 53.568 
L 348.271888 53.568 
L 348.808951 91.314587 
L 349.077483 72.441294 
L 364.920839 72.441294 
L 365.189371 53.568 
L 365.457902 72.441294 
L 367.606154 72.441294 
L 367.874685 53.568 
L 368.411748 53.568 
L 368.68028 72.441294 
L 368.948811 53.568 
L 369.217343 72.441294 
L 369.485874 53.568 
L 369.754406 72.441294 
L 371.365594 72.441294 
L 371.634126 53.568 
L 371.902657 72.441294 
L 379.153007 72.441294 
L 379.421538 91.314587 
L 381.56979 91.314587 
L 381.838322 110.189321 
L 384.255105 110.189321 
L 384.523636 91.314587 
L 384.792168 110.189321 
L 387.208951 110.189321 
L 387.477483 72.441294 
L 388.283077 72.441294 
L 388.551608 91.314587 
L 388.82014 72.441294 
L 395.533427 72.441294 
L 395.801958 53.568 
L 398.487273 53.568 
L 398.487273 53.568 
" style="fill:none;stroke:#1f77b4;stroke-linecap:square;stroke-width:1.5;"/>
   </g>
   <g id="line2d_17">
    <path clip-path="url(#pa8764c8cd9)" d="M 73.832727 258.307309 
L 74.101259 294.870266 
L 74.36979 285.697848 
L 74.638322 288.882995 
L 74.906853 289.595766 
L 75.175385 290.779396 
L 75.443916 291.387051 
L 75.712448 291.928468 
L 75.980979 292.323012 
L 76.24951 292.646998 
L 76.518042 292.911947 
L 76.786573 293.133698 
L 77.055105 293.32377 
L 77.323636 293.485043 
L 77.592168 293.624718 
L 77.860699 293.745673 
L 78.129231 293.852228 
L 78.397762 293.947264 
L 78.666294 294.029341 
L 78.934825 294.102778 
L 79.203357 294.166135 
L 79.471888 294.220853 
L 79.74042 294.274131 
L 80.008951 294.318769 
L 80.277483 294.357647 
L 80.546014 294.392206 
L 80.814545 294.423884 
L 81.083077 294.451243 
L 81.351608 294.475722 
L 81.62014 294.495881 
L 81.888671 294.511721 
L 82.157203 294.53044 
L 82.425734 294.547719 
L 82.694266 294.559239 
L 82.962797 294.569318 
L 83.231329 294.582278 
L 83.49986 294.589477 
L 83.768392 294.596677 
L 84.036923 294.605317 
L 84.305455 294.612516 
L 84.573986 294.616836 
L 84.842517 294.618276 
L 85.111049 294.621156 
L 85.37958 294.624036 
L 85.648112 294.628356 
L 85.916643 294.631236 
L 86.185175 294.632676 
L 86.453706 294.634116 
L 86.722238 294.638435 
" style="fill:none;stroke:#ff7f0e;stroke-linecap:square;stroke-width:1.5;"/>
   </g>
   <g id="line2d_18">
    <path clip-path="url(#pa8764c8cd9)" d="M 86.990769 247.350806 
L 87.259301 295.426083 
L 87.527832 284.220469 
L 87.796364 287.79728 
L 88.064895 288.595007 
L 88.333427 290.017668 
L 88.601958 290.744838 
L 88.87049 291.395691 
L 89.139021 291.870871 
L 89.407552 292.262534 
L 89.676084 292.576441 
L 89.944615 292.84427 
L 90.213147 293.068901 
L 90.481678 293.261853 
L 90.75021 293.428886 
L 91.018741 293.57432 
L 91.287273 293.699595 
L 91.555804 293.81479 
L 91.824336 293.914146 
L 92.092867 294.000542 
L 92.361399 294.076859 
L 92.62993 294.141656 
L 92.898462 294.202134 
L 93.166993 294.255411 
L 93.435524 294.302929 
L 93.704056 294.341808 
L 93.972587 294.382126 
L 94.241119 294.413805 
L 94.50965 294.444043 
L 94.778182 294.468522 
L 95.046713 294.493001 
L 95.315245 294.510281 
L 95.583776 294.529 
L 95.852308 294.543399 
L 96.120839 294.557799 
L 96.389371 294.569318 
L 96.657902 294.582278 
L 96.926434 294.589477 
L 97.194965 294.596677 
L 97.463497 294.603877 
L 97.732028 294.612516 
L 98.000559 294.615396 
L 98.269091 294.618276 
L 98.537622 294.621156 
L 98.806154 294.625476 
L 99.074685 294.628356 
L 99.343217 294.632676 
L 99.611748 294.635556 
L 99.88028 294.638435 
" style="fill:none;stroke:#2ca02c;stroke-linecap:square;stroke-width:1.5;"/>
   </g>
   <g id="line2d_19">
    <path clip-path="url(#pa8764c8cd9)" d="M 100.148811 260.773926 
L 100.417343 293.646317 
L 100.685874 285.286025 
L 100.954406 288.373256 
L 102.028531 291.687998 
L 102.565594 292.465566 
L 103.371189 293.199935 
L 104.445315 293.780231 
L 105.787972 294.186294 
L 107.667692 294.461323 
L 110.621538 294.609637 
L 113.038322 294.639875 
L 113.038322 294.639875 
" style="fill:none;stroke:#d62728;stroke-linecap:square;stroke-width:1.5;"/>
   </g>
   <g id="line2d_20">
    <path clip-path="url(#pa8764c8cd9)" d="M 113.306853 258.022201 
L 113.575385 294.628356 
L 113.843916 285.499136 
L 114.112448 288.704443 
L 114.380979 289.441692 
L 114.64951 290.648362 
L 115.455105 292.233736 
L 116.260699 293.073221 
L 117.066294 293.582959 
L 118.14042 294.007742 
L 119.751608 294.346128 
L 121.631329 294.52756 
L 125.659301 294.632676 
L 126.196364 294.639875 
L 126.196364 294.639875 
" style="fill:none;stroke:#9467bd;stroke-linecap:square;stroke-width:1.5;"/>
   </g>
   <g id="line2d_21">
    <path clip-path="url(#pa8764c8cd9)" d="M 126.464895 258.04524 
L 126.733427 294.654275 
L 127.001958 285.519295 
L 127.27049 288.727482 
L 127.539021 289.458971 
L 127.807552 290.661321 
L 128.344615 291.837752 
L 129.15021 292.85147 
L 129.955804 293.440405 
L 131.02993 293.921345 
L 132.372587 294.256851 
L 134.252308 294.491562 
L 137.474685 294.618276 
L 139.354406 294.639875 
L 139.354406 294.639875 
" style="fill:none;stroke:#8c564b;stroke-linecap:square;stroke-width:1.5;"/>
   </g>
   <g id="line2d_22">
    <path clip-path="url(#pa8764c8cd9)" d="M 139.622937 256.094121 
L 139.891469 295.488 
L 140.16 285.764085 
L 140.428531 289.01115 
L 140.697063 289.624564 
L 140.965594 290.809635 
L 141.771189 292.323012 
L 142.576783 293.129378 
L 143.382378 293.620398 
L 144.456503 294.029341 
L 146.067692 294.359087 
L 148.484476 294.560679 
L 152.512448 294.639875 
L 152.512448 294.639875 
" style="fill:none;stroke:#e377c2;stroke-linecap:square;stroke-width:1.5;"/>
   </g>
   <g id="line2d_23">
    <path clip-path="url(#pa8764c8cd9)" d="M 152.780979 258.783929 
L 153.04951 295.096336 
L 153.318042 285.908079 
L 153.586573 289.048588 
L 153.855105 289.741199 
L 154.123636 290.904671 
L 154.660699 292.020624 
L 155.466294 292.972425 
L 156.271888 293.523922 
L 157.346014 293.971743 
L 158.957203 294.330288 
L 161.373986 294.550599 
L 165.67049 294.639875 
L 165.67049 294.639875 
" style="fill:none;stroke:#7f7f7f;stroke-linecap:square;stroke-width:1.5;"/>
   </g>
   <g id="line2d_24">
    <path clip-path="url(#pa8764c8cd9)" d="M 165.939021 262.630009 
L 166.207552 294.887545 
L 166.476084 286.554612 
L 166.744615 289.512249 
L 167.013147 290.134303 
L 167.281678 291.189779 
L 168.087273 292.560602 
L 168.892867 293.284892 
L 169.966993 293.834949 
L 171.30965 294.215093 
L 173.189371 294.469962 
L 175.874685 294.603877 
L 178.828531 294.639875 
L 178.828531 294.639875 
" style="fill:none;stroke:#bcbd22;stroke-linecap:square;stroke-width:1.5;"/>
   </g>
   <g id="line2d_25">
    <path clip-path="url(#pa8764c8cd9)" d="M 179.097063 252.908974 
L 179.365594 294.511721 
L 179.634126 284.553096 
L 179.902657 287.991672 
L 180.171189 288.822518 
L 180.43972 290.168862 
L 180.976783 291.499366 
L 181.513846 292.335971 
L 182.319441 293.113539 
L 183.393566 293.728393 
L 184.736224 294.154616 
L 186.347413 294.423884 
L 189.838322 294.612516 
L 191.986573 294.639875 
L 191.986573 294.639875 
" style="fill:none;stroke:#17becf;stroke-linecap:square;stroke-width:1.5;"/>
   </g>
   <g id="line2d_26">
    <path clip-path="url(#pa8764c8cd9)" d="M 192.255105 257.201435 
L 192.523636 295.346886 
L 192.792168 285.8836 
L 193.060699 289.055788 
L 193.329231 289.695121 
L 193.597762 290.858593 
L 194.403357 292.35757 
L 195.208951 293.155297 
L 196.283077 293.760072 
L 197.625734 294.173335 
L 199.236923 294.426764 
L 201.653706 294.582278 
L 205.144615 294.639875 
L 205.144615 294.639875 
" style="fill:none;stroke:#1f77b4;stroke-linecap:square;stroke-width:1.5;"/>
   </g>
   <g id="line2d_27">
    <path clip-path="url(#pa8764c8cd9)" d="M 205.413147 257.421746 
L 205.681678 295.076177 
L 205.95021 285.628731 
L 206.218741 288.865716 
L 206.487273 289.546808 
L 206.755804 290.744838 
L 207.561399 292.294213 
L 208.366993 293.113539 
L 209.172587 293.611758 
L 210.246713 294.019261 
L 211.589371 294.314449 
L 213.469091 294.511721 
L 217.228531 294.628356 
L 218.302657 294.638435 
L 218.302657 294.638435 
" style="fill:none;stroke:#ff7f0e;stroke-linecap:square;stroke-width:1.5;"/>
   </g>
   <g id="line2d_28">
    <path clip-path="url(#pa8764c8cd9)" d="M 218.571189 250.484115 
L 218.83972 295.077617 
L 219.108252 284.567495 
L 219.376783 288.105428 
L 219.645315 288.849877 
L 219.913846 290.20342 
L 220.450909 291.512326 
L 220.987972 292.341731 
L 221.793566 293.116419 
L 222.599161 293.607438 
L 223.673287 294.019261 
L 225.015944 294.311569 
L 226.895664 294.514601 
L 230.118042 294.621156 
L 231.460699 294.638435 
L 231.460699 294.638435 
" style="fill:none;stroke:#2ca02c;stroke-linecap:square;stroke-width:1.5;"/>
   </g>
   <g id="line2d_29">
    <path clip-path="url(#pa8764c8cd9)" d="M 231.729231 258.019321 
L 231.997762 294.622596 
L 232.266294 285.494816 
L 232.534825 288.703003 
L 232.803357 289.437372 
L 233.071888 290.641162 
L 233.877483 292.230856 
L 234.683077 293.071781 
L 235.757203 293.706794 
L 236.831329 294.078299 
L 238.442517 294.380686 
L 240.859301 294.569318 
L 244.618741 294.639875 
L 244.618741 294.639875 
" style="fill:none;stroke:#d62728;stroke-linecap:square;stroke-width:1.5;"/>
   </g>
   <g id="line2d_30">
    <path clip-path="url(#pa8764c8cd9)" d="M 244.887273 256.014925 
L 245.155804 293.686635 
L 245.424336 284.473899 
L 245.692867 287.759842 
L 246.766993 291.41153 
L 247.304056 292.266854 
L 248.10965 293.071781 
L 248.915245 293.57576 
L 249.989371 294.000542 
L 251.332028 294.302929 
L 253.48028 294.529 
L 257.508252 294.634116 
L 257.776783 294.638435 
L 257.776783 294.638435 
" style="fill:none;stroke:#9467bd;stroke-linecap:square;stroke-width:1.5;"/>
   </g>
   <g id="line2d_31">
    <path clip-path="url(#pa8764c8cd9)" d="M 258.045315 253.2416 
L 258.313846 294.372046 
L 258.582378 284.512777 
L 258.850909 287.925435 
L 259.119441 288.77356 
L 259.387972 290.118464 
L 259.925035 291.459048 
L 260.462098 292.302853 
L 261.267692 293.09338 
L 262.341818 293.719754 
L 263.684476 294.150296 
L 265.295664 294.421004 
L 268.24951 294.598117 
L 270.934825 294.638435 
L 270.934825 294.638435 
" style="fill:none;stroke:#8c564b;stroke-linecap:square;stroke-width:1.5;"/>
   </g>
   <g id="line2d_32">
    <path clip-path="url(#pa8764c8cd9)" d="M 271.203357 258.543459 
L 271.471888 293.715434 
L 271.74042 284.92172 
L 272.008951 288.196144 
L 272.277483 289.047148 
L 272.546014 290.308536 
L 273.083077 291.587203 
L 273.62014 292.389249 
L 274.425734 293.148097 
L 275.49986 293.751432 
L 276.573986 294.104218 
L 278.185175 294.395086 
L 280.601958 294.570758 
L 284.092867 294.636995 
L 284.092867 294.636995 
" style="fill:none;stroke:#e377c2;stroke-linecap:square;stroke-width:1.5;"/>
   </g>
   <g id="line2d_33">
    <path clip-path="url(#pa8764c8cd9)" d="M 284.361399 256.203557 
L 284.62993 293.748552 
L 284.898462 284.548776 
L 285.166993 287.81744 
L 286.241119 291.444648 
L 286.778182 292.294213 
L 287.583776 293.08906 
L 288.657902 293.718314 
L 290.000559 294.150296 
L 291.611748 294.418125 
L 294.028531 294.583718 
L 297.250909 294.638435 
L 297.250909 294.638435 
" style="fill:none;stroke:#7f7f7f;stroke-linecap:square;stroke-width:1.5;"/>
   </g>
   <g id="line2d_34">
    <path clip-path="url(#pa8764c8cd9)" d="M 297.519441 247.139135 
L 297.787972 295.315207 
L 298.056503 284.119674 
L 298.325035 287.713764 
L 298.593566 288.52013 
L 298.862098 289.952871 
L 299.399161 291.348172 
L 299.936224 292.222216 
L 300.741818 293.038662 
L 301.547413 293.55848 
L 302.621538 293.987583 
L 303.964196 294.29861 
L 306.112448 294.52468 
L 309.334825 294.625476 
L 310.408951 294.638435 
L 310.408951 294.638435 
" style="fill:none;stroke:#bcbd22;stroke-linecap:square;stroke-width:1.5;"/>
   </g>
   <g id="line2d_35">
    <path clip-path="url(#pa8764c8cd9)" d="M 310.677483 253.2416 
L 310.946014 294.374926 
L 311.214545 284.514217 
L 311.483077 287.929755 
L 311.751608 288.77356 
L 312.02014 290.118464 
L 312.557203 291.460488 
L 313.094266 292.302853 
L 313.89986 293.09338 
L 314.973986 293.719754 
L 316.316643 294.150296 
L 317.927832 294.421004 
L 320.881678 294.598117 
L 323.566993 294.638435 
L 323.566993 294.638435 
" style="fill:none;stroke:#17becf;stroke-linecap:square;stroke-width:1.5;"/>
   </g>
   <g id="line2d_36">
    <path clip-path="url(#pa8764c8cd9)" d="M 323.835524 258.030841 
L 324.104056 294.641315 
L 324.372587 285.509216 
L 324.641119 288.720282 
L 324.90965 289.451772 
L 325.178182 290.654121 
L 325.983776 292.240935 
L 326.789371 293.0761 
L 327.594965 293.585839 
L 328.669091 294.007742 
L 330.28028 294.346128 
L 332.16 294.52756 
L 336.187972 294.632676 
L 336.725035 294.638435 
L 336.725035 294.638435 
" style="fill:none;stroke:#1f77b4;stroke-linecap:square;stroke-width:1.5;"/>
   </g>
   <g id="line2d_37">
    <path clip-path="url(#pa8764c8cd9)" d="M 336.993566 248.543076 
L 337.262098 294.219413 
L 337.530629 283.612815 
L 337.799161 287.214105 
L 338.067692 288.163025 
L 338.336224 289.649043 
L 338.873287 291.130742 
L 339.41035 292.063823 
L 340.215944 292.934986 
L 341.021538 293.486483 
L 342.095664 293.945824 
L 343.706853 294.323089 
L 346.123636 294.552039 
L 349.883077 294.638435 
L 349.883077 294.638435 
" style="fill:none;stroke:#ff7f0e;stroke-linecap:square;stroke-width:1.5;"/>
   </g>
   <g id="line2d_38">
    <path clip-path="url(#pa8764c8cd9)" d="M 350.151608 244.109501 
L 350.42014 293.945824 
L 350.688671 282.679734 
L 350.957203 286.456696 
L 351.225734 287.519372 
L 351.494266 289.145064 
L 352.031329 290.783716 
L 352.568392 291.811833 
L 353.373986 292.769393 
L 354.17958 293.374168 
L 355.253706 293.878147 
L 356.596364 294.238132 
L 358.476084 294.484362 
L 361.161399 294.612516 
L 363.041119 294.636995 
L 363.041119 294.636995 
" style="fill:none;stroke:#2ca02c;stroke-linecap:square;stroke-width:1.5;"/>
   </g>
   <g id="line2d_39">
    <path clip-path="url(#pa8764c8cd9)" d="M 363.30965 243.64008 
L 363.578182 293.836389 
L 363.846713 282.52422 
L 364.115245 286.341501 
L 364.383776 287.411377 
L 364.652308 289.048588 
L 365.189371 290.711719 
L 365.726434 291.757115 
L 366.532028 292.734835 
L 367.337622 293.348249 
L 368.411748 293.866628 
L 369.754406 294.230932 
L 371.634126 294.484362 
L 374.856503 294.618276 
L 376.199161 294.634116 
L 376.199161 294.634116 
" style="fill:none;stroke:#d62728;stroke-linecap:square;stroke-width:1.5;"/>
   </g>
   <g id="line2d_40">
    <path clip-path="url(#pa8764c8cd9)" d="M 376.467692 243.619921 
L 376.736224 293.81623 
L 377.004755 282.501181 
L 377.273287 286.319902 
L 377.541818 287.395537 
L 377.81035 289.038509 
L 378.347413 290.703079 
L 378.884476 291.749916 
L 379.69007 292.731955 
L 380.495664 293.346809 
L 381.56979 293.865188 
L 382.912448 294.230932 
L 384.792168 294.484362 
L 388.014545 294.618276 
L 389.357203 294.636995 
L 389.357203 294.636995 
" style="fill:none;stroke:#9467bd;stroke-linecap:square;stroke-width:1.5;"/>
   </g>
   <g id="patch_3">
    <path d="M 57.6 307.584 
L 57.6 41.472 
" style="fill:none;stroke:#000000;stroke-linecap:square;stroke-linejoin:miter;stroke-width:0.8;"/>
   </g>
   <g id="patch_4">
    <path d="M 414.72 307.584 
L 414.72 41.472 
" style="fill:none;stroke:#000000;stroke-linecap:square;stroke-linejoin:miter;stroke-width:0.8;"/>
   </g>
   <g id="patch_5">
    <path d="M 57.6 307.584 
L 414.72 307.584 
" style="fill:none;stroke:#000000;stroke-linecap:square;stroke-linejoin:miter;stroke-width:0.8;"/>
   </g>
   <g id="patch_6">
    <path d="M 57.6 41.472 
L 414.72 41.472 
" style="fill:none;stroke:#000000;stroke-linecap:square;stroke-linejoin:miter;stroke-width:0.8;"/>
   </g>
  </g>
 </g>
 <defs>
  <clipPath id="pa8764c8cd9">
   <rect height="266.112" width="357.12" x="57.6" y="41.472"/>
  </clipPath>
 </defs>
</svg>
